<svg width="576" height="303" viewBox="0 0 576 303" fill="none" xmlns="http://www.w3.org/2000/svg">
<path d="M562.969 222.885L551.608 223.127L545.842 223.222C543.911 223.266 541.971 223.222 540.04 223.274H539.659V222.885L539.607 213.17V212.737H540.04L551.504 212.789C555.332 212.789 559.15 212.884 562.969 212.927H563.211V213.17C563.211 214.815 563.142 216.451 563.099 218.07L562.969 222.885ZM562.969 222.885L562.847 217.992C562.804 216.382 562.752 214.789 562.735 213.195L562.969 213.438C559.15 213.481 555.332 213.576 551.504 213.576L540.04 213.628L540.473 213.195V222.885L540.084 222.504C541.971 222.504 543.859 222.504 545.755 222.547L551.392 222.694L562.969 222.885Z" fill="#EBEBEB"/>
<path d="M550.18 235.102L538.819 235.344L533.044 235.44C531.122 235.44 529.182 235.44 527.251 235.492H526.87V235.102V225.413V224.98H527.303L538.767 225.041C542.586 225.041 546.413 225.136 550.232 225.179H550.474V225.413C550.474 227.058 550.405 228.695 550.361 230.314L550.18 235.102ZM550.18 235.102L550.058 230.21C550.015 228.599 549.963 227.006 549.946 225.413L550.18 225.655C546.361 225.699 542.534 225.794 538.715 225.794L527.251 225.846L527.684 225.413V235.102L527.295 234.721C529.182 234.721 531.07 234.721 532.966 234.764L538.655 234.868L550.18 235.102Z" fill="#EBEBEB"/>
<path d="M575.758 235.102L564.397 235.344L558.631 235.44C556.7 235.44 554.76 235.44 552.829 235.492H552.448V235.102L552.396 225.413V224.98H552.829L564.293 225.041C568.121 225.041 571.939 225.136 575.758 225.179H576V225.413C576 227.058 575.922 228.695 575.887 230.314L575.758 235.102ZM575.758 235.102L575.636 230.21C575.636 228.599 575.541 227.006 575.524 225.413L575.758 225.655C571.939 225.699 568.121 225.794 564.293 225.794L552.829 225.846L553.262 225.413V235.102L552.873 234.721C554.769 234.721 556.648 234.721 558.544 234.764L564.241 234.868L575.758 235.102Z" fill="#EBEBEB"/>
<path d="M236.032 107.593L224.671 107.836L218.905 107.931C216.974 107.931 215.034 107.931 213.103 107.931H212.722V107.541L212.67 97.8524V97.4194H213.103L224.568 97.4714C228.395 97.4714 232.213 97.5666 236.032 97.6099H236.274V97.8437C236.274 99.4889 236.196 101.117 236.153 102.736L236.032 107.593ZM236.032 107.593L235.91 102.693C235.91 101.082 235.815 99.4889 235.798 97.9043L236.032 98.1381C232.213 98.1381 228.395 98.2766 224.568 98.2766L213.103 98.3373L213.536 97.9043L213.493 107.593L213.103 107.204C214.991 107.204 216.879 107.204 218.775 107.256L224.472 107.351L236.032 107.593Z" fill="#EBEBEB"/>
<path d="M223.226 119.811L211.865 120.053L206.09 120.149C204.168 120.149 202.228 120.149 200.297 120.192H199.916V119.802L199.847 110.13V109.698H200.28L211.744 109.749C215.563 109.749 219.39 109.845 223.208 109.888H223.451V110.13C223.451 111.776 223.381 113.403 223.338 115.023L223.226 119.811ZM223.226 119.811L223.104 114.91C223.061 113.3 223.009 111.706 222.992 110.122L223.226 110.356C219.407 110.399 215.58 110.494 211.761 110.494L200.297 110.555L200.73 110.122L200.713 119.811L200.323 119.421C202.211 119.421 204.098 119.421 205.995 119.473L211.683 119.568L223.226 119.811Z" fill="#EBEBEB"/>
<path d="M248.821 119.811L237.461 120.053L231.694 120.149C229.763 120.149 227.832 120.149 225.892 120.192H225.511V119.802L225.459 110.13V109.698H225.892L237.357 109.749C241.184 109.749 245.002 109.845 248.821 109.888H249.063V110.13C249.063 111.776 248.985 113.403 248.951 115.023L248.821 119.811ZM248.821 119.811L248.7 114.91C248.7 113.3 248.604 111.706 248.587 110.122L248.821 110.356C245.002 110.399 241.184 110.494 237.357 110.494L225.892 110.555L226.325 110.122L226.282 119.811L225.892 119.421C227.789 119.421 229.668 119.421 231.564 119.473L237.261 119.568L248.821 119.811Z" fill="#EBEBEB"/>
<path d="M49.0808 171.703L37.7206 171.945L31.9452 172.04C30.023 172.04 28.0834 172.04 26.1525 172.084H25.8062V171.694V162.005V161.572H26.2391L37.7033 161.624C41.5218 161.624 45.3489 161.719 49.1674 161.763H49.4099V161.996C49.4099 163.641 49.3406 165.269 49.2973 166.888L49.0808 171.703ZM49.0808 171.703L48.9596 166.802C48.9596 165.191 48.8644 163.598 48.8471 162.014L49.0808 162.247C45.2623 162.291 41.4352 162.386 37.6167 162.386L26.1525 162.447L26.5854 162.014L26.5421 171.703L26.1525 171.313C28.0401 171.313 29.9277 171.313 31.824 171.365L37.5128 171.46L49.0808 171.703Z" fill="#EBEBEB"/>
<path d="M429.182 107.585L417.822 107.827L412.055 107.922C410.125 107.966 408.185 107.922 406.254 107.966H405.873V107.576L405.821 97.8868V97.4539H406.254L417.718 97.5058C421.545 97.5058 425.364 97.6097 429.182 97.653H429.425V97.8868C429.425 99.532 429.356 101.168 429.312 102.779L429.182 107.585ZM429.182 107.585L429.061 102.692C429.018 101.073 428.966 99.48 428.949 97.8954L429.182 98.1292C425.364 98.1725 421.545 98.2678 417.718 98.2764L406.254 98.3284L406.687 97.8954L406.644 107.585L406.254 107.195C408.142 107.195 410.029 107.195 411.926 107.247L417.623 107.342L429.182 107.585Z" fill="#EBEBEB"/>
<path d="M561.644 13.4814L550.284 13.7239L544.508 13.8191C542.586 13.8191 540.646 13.8191 538.715 13.8711H538.334V13.4814V3.79231V3.35938H538.767L550.232 3.41133C554.05 3.41133 557.877 3.51523 561.696 3.55853H561.938V3.79231C561.938 5.43747 561.869 7.07398 561.826 8.6845L561.644 13.4814ZM561.644 13.4814L561.523 8.58926C561.479 6.97007 561.427 5.37686 561.41 3.79231L561.644 4.0261C557.825 4.0261 553.998 4.16464 550.18 4.1733L538.715 4.22525L539.148 3.79231L539.105 13.4814L538.715 13.0918C540.603 13.0918 542.491 13.0918 544.387 13.1438L550.076 13.239L561.644 13.4814Z" fill="#EBEBEB"/>
<path d="M574.433 25.6991L563.072 25.9415L557.306 26.0368C555.375 26.0801 553.435 26.0368 551.504 26.0801H551.123V25.6904L551.071 16.0013V15.5684H551.504L562.969 15.6203C566.796 15.6203 570.614 15.7242 574.433 15.7675H574.675V16.0013C574.675 17.6465 574.597 19.283 574.554 20.8935L574.433 25.6991ZM574.433 25.6991L574.312 20.8069C574.312 19.1877 574.216 17.5945 574.199 16.01L574.433 16.2437C570.614 16.287 566.796 16.3823 562.969 16.3909L551.504 16.4429L551.937 16.01V25.6991L551.548 25.3094C553.435 25.3094 555.323 25.3094 557.219 25.3614L562.917 25.4566L574.433 25.6991Z" fill="#EBEBEB"/>
<path d="M23.503 13.49L12.1341 13.7324L6.3674 13.8277C4.44516 13.8277 2.5056 13.8277 0.574703 13.8796H0.185059V13.49V3.80086V3.36792H0.626653L12.0908 3.42853C15.9093 3.42853 19.7278 3.52378 23.555 3.56707H23.7888V3.80086C23.7888 5.44602 23.7109 7.08252 23.6762 8.7017L23.503 13.49ZM23.503 13.49L23.3732 8.5978C23.3732 6.97862 23.2779 5.38541 23.2606 3.80086L23.503 4.03464C19.6759 4.0866 15.8574 4.17318 12.0389 4.18184L0.574703 4.23379L1.00764 3.80086L0.955686 13.49L0.574703 13.1523C2.46231 13.1523 4.34126 13.1523 6.23752 13.1523L11.935 13.2475L23.503 13.49Z" fill="#EBEBEB"/>
<path d="M304.341 133.674C303.278 134.677 301.96 135.369 300.531 135.674C299.665 135.899 298.704 136.029 297.786 136.193H294.651C293.361 135.994 292.054 135.838 290.798 135.587C286.106 134.58 281.662 132.649 277.724 129.907C267.353 123.051 258.615 114 252.128 103.394C249.954 99.8943 248.456 96.0173 247.712 91.9645C247.522 90.8995 247.375 89.8258 247.21 88.7521V85.6177C247.47 84.4141 247.678 83.1932 247.998 82.007C248.314 80.8936 248.91 79.88 249.73 79.063C249.886 79.2015 250.024 79.3141 250.163 79.4526C255.15 84.4343 260.141 89.416 265.134 94.3976C265.295 94.5321 265.411 94.7139 265.464 94.9174C265.516 95.1209 265.504 95.3358 265.428 95.5319C265.049 96.7665 264.998 98.0786 265.28 99.3389C265.563 100.599 266.169 101.764 267.039 102.719C271.298 107.556 275.858 112.12 280.694 116.382C281.657 117.257 282.833 117.866 284.104 118.147C285.375 118.428 286.698 118.372 287.941 117.984C288.305 117.889 288.564 117.828 288.876 118.14C293.973 123.266 299.082 128.38 304.202 133.483C304.228 133.509 304.263 133.587 304.341 133.674Z" fill="#EBEBEB"/>
<path d="M314.142 122.478V123.517C313.691 124.168 313.202 124.792 312.679 125.387C311.138 126.989 309.545 128.539 307.977 130.106L307.492 130.565L292.097 115.178C294.115 113.187 296.123 111.152 298.202 109.169C298.427 108.96 298.692 108.798 298.981 108.694C299.269 108.589 299.576 108.543 299.883 108.559C300.19 108.575 300.491 108.653 300.767 108.788C301.043 108.922 301.29 109.111 301.492 109.342C302.652 110.468 303.778 111.62 304.955 112.754C307.631 115.438 310.324 118.105 312.973 120.807C313.406 121.332 313.797 121.891 314.142 122.478Z" fill="#EBEBEB"/>
<path d="M273.784 85.6955C271.879 87.5398 269.931 89.3409 268.043 91.1246L252.769 75.8592C253.107 75.5561 253.496 75.2358 253.852 74.8894C255.254 73.4954 256.631 72.0667 258.06 70.6986C258.64 70.1894 259.25 69.7152 259.887 69.2786H260.934C261.518 69.6371 262.074 70.0395 262.597 70.4821C266.337 74.1881 270.064 77.9113 273.775 81.6519C275.178 83.0546 275.178 84.3188 273.784 85.6955Z" fill="#EBEBEB"/>
<path d="M17.8057 94.1897H118.013V30.6172H17.8057V94.1897Z" fill="#EBEBEB"/>
<path d="M136.759 94.1898H118.013V74.6643L136.759 94.1898Z" fill="#EBEBEB"/>
<path d="M106.41 41.605H29.3997V42.8172H106.41V41.605Z" fill="white"/>
<path d="M69.2039 48.1338H29.3997V49.346H69.2039V48.1338Z" fill="white"/>
<path d="M91.6733 61.1824H29.3997V62.3946H91.6733V61.1824Z" fill="white"/>
<path d="M106.41 67.7026H29.3997V68.9149H106.41V67.7026Z" fill="white"/>
<path d="M106.41 74.2224H29.3997V75.4346H106.41V74.2224Z" fill="white"/>
<path d="M56.7613 80.7512H29.3997V81.9634H56.7613V80.7512Z" fill="white"/>
<path d="M558.527 119.577H458.319V175.643H558.527V119.577Z" fill="#DBDBDB"/>
<path d="M439.573 175.651H458.319V156.126L439.573 175.651Z" fill="#DBDBDB"/>
<path d="M537.192 148.852H470.147V150.065H537.192V148.852Z" fill="white"/>
<path d="M523.407 155.381H470.147V156.593H523.407V155.381Z" fill="white"/>
<path d="M527.425 135.804H470.147V137.016H527.425V135.804Z" fill="white"/>
<path d="M544.932 129.284H470.147V130.496H544.932V129.284Z" fill="white"/>
<path d="M528.931 161.901H470.147V163.113H528.931V161.901Z" fill="white"/>
<path d="M507.899 59.9878H323.892V68.0577H507.899V59.9878Z" fill="#EBEBEB"/>
<path d="M342.275 68.0662H334.205V94.7524H342.275V68.0662Z" fill="#EBEBEB"/>
<path d="M342.275 68.0662H334.205V76.3179H342.275V68.0662Z" fill="#DBDBDB"/>
<path d="M497.586 68.0662H489.516V94.7524H497.586V68.0662Z" fill="#EBEBEB"/>
<path d="M497.586 68.0662H489.516V76.3179H497.586V68.0662Z" fill="#DBDBDB"/>
<path d="M371.195 59.9875V8.56323H358.241V59.9875H371.195Z" fill="#C7C7C7"/>
<path d="M371.195 11.464V5.80981L358.241 5.80981V11.464H371.195Z" fill="#DBDBDB"/>
<path d="M371.186 20.8068V18.7114H358.233V20.8068H371.186Z" fill="#DBDBDB"/>
<path d="M372.805 53.2511V47.5969H358.241V53.2511H372.805Z" fill="#DBDBDB"/>
<path d="M380.243 59.9878V0L371.195 0V59.9878H380.243Z" fill="#DBDBDB"/>
<path d="M378.399 28.7123V5.63672H372.97V28.7123H378.399Z" fill="#EBEBEB"/>
<path d="M444.603 53.5797L401.941 11.407L395.58 17.8419L438.242 60.0147L444.603 53.5797Z" fill="#C7C7C7"/>
<path d="M433.345 44.9558L416.935 28.7332L413.118 32.5941L429.528 48.8167L433.345 44.9558Z" fill="#DBDBDB"/>
<path d="M395.604 60.005V14.4341L380.234 14.4341V60.005H395.604Z" fill="#A6A6A6"/>
<path d="M395.604 55.1649V50.9221H380.234V55.1649H395.604Z" fill="#C7C7C7"/>
<path d="M395.604 48.1422V46.4971H380.234V48.1422H395.604Z" fill="#C7C7C7"/>
<path d="M358.241 60.0048V17.1787H347.626V60.0048H358.241Z" fill="#A6A6A6"/>
<path d="M358.241 55.4592V51.4675H347.626V55.4592H358.241Z" fill="#C7C7C7"/>
<path d="M358.241 29.9939V26.0022H347.626V29.9939H358.241Z" fill="#C7C7C7"/>
<path d="M358.241 34.2797V32.7297H347.626V34.2797H358.241Z" fill="#C7C7C7"/>
<path d="M488.555 40.0378L487.404 43.0943L486.694 44.956L485.534 48.0212L481.014 59.9962H456.57L452.033 48.0212L450.873 44.956L450.171 43.0943L449.011 40.0378L458.033 26.8852L453.358 18.2178H484.235L479.533 26.8852L488.555 40.0378Z" fill="#DBDBDB"/>
<path d="M488.555 40.0378L487.404 43.0944H450.171L449.011 40.0378H488.555Z" fill="#A6A6A6"/>
<path d="M486.694 44.9561L485.534 48.0212H452.033L450.873 44.9561H486.694Z" fill="#A6A6A6"/>
<path d="M11.7964 293.375L80.8931 293.167L149.981 293.089L288.166 292.951L426.351 293.089L495.439 293.167L564.536 293.375L495.439 293.592L426.351 293.67L288.166 293.808L149.981 293.67L80.8931 293.592L11.7964 293.375Z" fill="#263238"/>
<path d="M280.668 293.358H386.876L365.705 170.17H286.278L280.668 293.358Z" fill="#DBDBDB"/>
<path d="M280.668 293.358H289.984L295.206 170.17H286.278L280.668 293.358Z" fill="#A6A6A6"/>
<path d="M372.953 194.319C384.971 221.162 414.012 265.711 427.009 254.671C446.448 238.167 459.609 201.662 464.804 186.899C467.722 178.63 425.598 164.793 423.017 172.3C419.346 182.968 413.588 205.264 410.254 208.425C408.523 210.078 394.721 190.709 384.278 181.522C369.203 168.283 369.117 185.747 372.953 194.319Z" fill="#AD6359"/>
<path d="M475.325 174.473C471.576 182.907 457.141 197.168 452.345 199.272C447.548 201.376 422.212 178.491 422.74 173.105C423.269 167.72 438.387 139.509 446.76 135.18C455.133 130.851 479.213 165.728 475.325 174.473Z" fill="#AD6359"/>
<path d="M424.723 167.183C424.723 167.183 425.329 155.182 422.299 145.034C419.753 136.505 415.017 124.131 419.545 122.59C428.862 119.43 440.672 150.298 440.672 150.298C440.672 150.298 443.703 164.758 434.758 168.707C429.148 171.183 424.723 167.183 424.723 167.183Z" fill="#AD6359"/>
<path d="M435.226 144.419C435.832 149.277 441.209 145.778 441.209 145.778C441.209 145.778 434.689 152.705 437.252 157.442C439.746 162.022 446.084 157.563 446.543 157.251C446.197 157.624 440.378 164.118 443.452 168.638C446.647 173.331 452.241 167.772 452.604 167.408C452.388 167.85 449.669 173.833 452.786 176.742C458.137 181.721 465.514 166.62 471.195 164.932C471.195 164.932 475.16 174.222 475.325 174.456C475.325 174.456 482.641 160.221 479.94 152.688C479.561 151.588 478.819 150.649 477.835 150.027C476.851 149.405 475.685 149.138 474.528 149.268C474.528 149.268 477.394 144.939 475.091 141.302C473.896 139.44 469.896 139.683 469.896 139.683C469.896 139.683 472.043 136.124 469.792 133.024C467.999 130.539 464.233 131.171 464.233 131.171C464.233 131.171 464.709 126.79 462.06 124.85C456.674 120.937 433.919 134.02 435.226 144.419Z" fill="#AD6359"/>
<path d="M463.584 131.197C463.662 131.154 463.584 131.042 463.54 131.068C455.003 133.544 446.387 138.86 440.898 145.935C440.716 146.168 441.01 146.558 441.261 146.342C448.353 140.151 455.063 135.241 463.584 131.197Z" fill="#263238"/>
<path d="M469.948 139.57C470.043 139.527 469.948 139.371 469.87 139.397C461.081 141.995 451.548 148.281 446.171 157.156C445.989 157.459 446.127 157.918 446.37 157.589C450.388 151.978 462.259 143.181 469.948 139.57Z" fill="#263238"/>
<path d="M452.44 168.144C457.921 159.832 465.514 154.108 474.164 149.355C474.268 149.294 474.164 149.147 474.069 149.173C469.203 150.342 464.008 153.944 460.215 157.095C456.626 159.947 453.849 163.691 452.163 167.954C452.085 168.144 452.327 168.335 452.44 168.144Z" fill="#263238"/>
<path d="M441.036 145.77C440.82 146.047 441.469 146.056 441.261 146.341C440.395 147.536 435.763 155.199 437.884 157.598C439.616 159.511 443.331 158.541 444.63 157.598L447.877 155.251L445.643 158.619C444.637 160.095 443.877 161.724 443.391 163.442C443.122 164.225 443.023 165.056 443.099 165.879C443.175 166.703 443.425 167.502 443.833 168.222C444.215 168.889 444.816 169.404 445.533 169.68C446.251 169.956 447.042 169.976 447.773 169.737C449.402 169.177 450.859 168.208 452.007 166.923L455.297 163.46L453.323 167.789C452.771 168.987 452.373 170.249 452.137 171.547C451.872 172.767 451.971 174.037 452.422 175.201C452.646 175.713 453.007 176.154 453.465 176.473C453.924 176.793 454.462 176.979 455.02 177.011C456.285 176.882 457.486 176.396 458.484 175.608C460.67 173.937 462.722 172.099 464.623 170.11C465.618 169.14 466.614 168.161 467.662 167.226C468.646 166.241 469.826 165.474 471.125 164.975C469.89 165.601 468.79 166.462 467.887 167.512C466.926 168.508 466.008 169.547 465.09 170.594C463.286 172.757 461.286 174.749 459.116 176.543C457.952 177.531 456.526 178.159 455.011 178.353C454.177 178.361 453.357 178.127 452.652 177.68C451.947 177.233 451.386 176.591 451.037 175.833C450.431 174.404 450.265 172.828 450.561 171.304C450.794 169.856 451.216 168.444 451.816 167.105L453.132 167.971C451.799 169.511 450.085 170.675 448.162 171.348C447.085 171.692 445.921 171.649 444.872 171.226C443.858 170.782 443.001 170.043 442.413 169.105C441.897 168.191 441.581 167.179 441.486 166.134C441.39 165.089 441.517 164.036 441.859 163.044C442.412 161.162 443.275 159.386 444.413 157.788L445.426 158.775C443.694 159.901 439.677 161.442 436.655 158.818C433.313 154.758 439.763 147.086 441.036 145.77Z" fill="#263238"/>
<path d="M441.209 145.779C440.274 146.152 439.287 146.382 438.283 146.463C437.879 146.504 437.472 146.437 437.104 146.268C436.735 146.099 436.419 145.834 436.187 145.501C435.779 144.7 435.614 143.798 435.711 142.904C435.763 141.917 435.867 140.886 436.023 139.821C435.363 140.691 434.897 141.692 434.655 142.757C434.488 143.331 434.437 143.933 434.504 144.527C434.571 145.122 434.754 145.697 435.044 146.22C435.423 146.764 435.957 147.18 436.577 147.415C437.173 147.61 437.812 147.634 438.421 147.484C439.507 147.224 440.483 146.627 441.209 145.779Z" fill="#263238"/>
<path d="M420.454 173.105L464.302 203.645C464.302 203.645 438.11 257.909 421.926 257.762C405.743 257.615 382.365 216.971 374.303 199.402C366.242 181.833 371.048 166.949 387.361 182.95C403.674 198.952 409.518 205.55 410.047 205.333C411.034 204.935 420.454 173.105 420.454 173.105Z" fill="#DDB05B"/>
<path d="M464.302 203.645C464.302 203.645 446.119 241.276 430.715 253.779C427.624 256.29 424.654 257.788 421.926 257.753C405.743 257.615 382.365 216.962 374.26 199.402C369.247 188.527 369.203 178.682 373.758 176.56C376.572 175.253 381.118 176.863 387.326 182.977C403.778 199.09 409.475 205.567 410.012 205.351C411.034 204.935 420.463 173.114 420.463 173.114L464.302 203.645Z" fill="#DDB05B"/>
<path d="M437.166 247.371C436.629 247.995 436.083 248.601 435.538 249.19C430.604 252.296 425.068 254.324 419.294 255.138C417.702 255.314 416.099 255.378 414.497 255.329L413.501 254.705C415.413 254.821 417.331 254.772 419.233 254.558C421.512 254.309 423.753 253.792 425.909 253.017L427.546 252.48L429.13 251.813C429.659 251.588 430.204 251.398 430.715 251.138L432.248 250.359C433.953 249.475 435.596 248.477 437.166 247.371ZM403.899 199.566C398.895 201.842 394.332 204.981 390.417 208.84C387.878 211.342 385.531 214.03 383.395 216.884C383.499 217.074 383.611 217.274 383.733 217.464C385.894 214.563 388.276 211.833 390.859 209.299C394.139 206.076 397.877 203.354 401.951 201.22L403.483 200.441C403.765 200.298 404.054 200.171 404.349 200.06L403.899 199.566ZM441.772 202.329C437.614 200.293 433.263 198.678 428.784 197.506C428.317 197.393 427.849 197.281 427.373 197.185C427.07 197.116 426.758 197.047 426.455 196.995C422.67 196.202 418.785 196.003 414.939 196.406C414.376 196.484 413.822 196.571 413.259 196.674C413.198 196.874 413.129 197.081 413.068 197.272C413.709 197.159 414.359 197.064 415.008 196.986C418.578 196.609 422.184 196.758 425.71 197.428L426.654 197.601C427.321 197.739 427.987 197.887 428.654 198.051C433.095 199.196 437.411 200.779 441.538 202.779C447.721 205.812 453.717 209.209 459.497 212.953C459.583 212.806 459.661 212.658 459.73 212.52C453.952 208.769 447.956 205.366 441.772 202.329ZM446.318 191.124C439.298 191.414 432.458 193.43 426.403 196.995L425.658 197.428C424.129 198.344 422.652 199.344 421.234 200.424C413.813 206.069 407.891 213.325 402.254 220.625C399.431 224.287 396.66 227.976 393.733 231.543C393.526 231.803 393.309 232.054 393.093 232.314L393.422 232.79C393.673 232.496 393.924 232.201 394.166 231.924C397.11 228.348 399.89 224.659 402.721 221.006C408.358 213.732 414.272 206.528 421.615 200.961C423.206 199.747 424.872 198.633 426.602 197.627C426.836 197.48 427.078 197.341 427.321 197.211C429.337 196.079 431.439 195.107 433.607 194.302L435.226 193.713C435.763 193.523 436.326 193.393 436.88 193.228L438.534 192.769L440.266 192.432C442.501 191.928 444.789 191.689 447.08 191.722H447.184L446.318 191.124ZM392.504 188.102C389.479 189.447 386.317 190.46 383.075 191.124L381.386 191.453C380.823 191.557 380.252 191.592 379.654 191.67L377.923 191.869L376.191 191.938C374.61 192.048 373.022 192.019 371.446 191.852L371.602 192.423C378.921 192.957 386.256 191.635 392.928 188.579C392.833 188.414 392.668 188.258 392.504 188.102ZM380.018 177.348C376.952 179.431 373.772 181.342 370.493 183.072C370.493 183.305 370.493 183.539 370.493 183.782C373.992 181.952 377.375 179.911 380.624 177.669C380.416 177.556 380.217 177.443 380.018 177.348Z" fill="white"/>
<path d="M453.938 208.736C452.777 207.775 451.608 206.84 450.431 205.905C448.041 204.017 445.651 202.138 443.261 200.268C438.499 196.553 433.633 192.969 428.732 189.444C425.953 187.436 423.216 185.323 420.35 183.444C420.337 183.434 420.321 183.426 420.305 183.422C420.288 183.418 420.271 183.417 420.254 183.419C420.237 183.422 420.221 183.427 420.206 183.436C420.192 183.445 420.179 183.456 420.169 183.47C420.158 183.484 420.151 183.499 420.147 183.516C420.142 183.532 420.141 183.549 420.144 183.566C420.146 183.583 420.152 183.599 420.161 183.614C420.169 183.629 420.181 183.642 420.195 183.652C422.472 185.661 424.914 187.496 427.277 189.41C429.641 191.323 431.988 193.246 434.386 195.116C439.154 198.822 443.98 202.456 448.864 206.017C450.223 207.022 451.565 208.078 452.977 209.022C453.695 209.507 454.379 210.044 455.107 210.511C455.834 210.979 456.613 211.377 457.323 211.905C457.339 211.914 457.358 211.918 457.377 211.914C457.395 211.91 457.412 211.9 457.423 211.886C457.435 211.871 457.441 211.853 457.44 211.834C457.439 211.815 457.431 211.798 457.418 211.784C456.232 210.788 455.124 209.706 453.938 208.736Z" fill="#263238"/>
<path d="M410.384 204.364C408.711 208.887 407.334 213.515 406.263 218.218C405.691 220.538 405.241 222.885 404.799 225.223C404.332 227.546 404.02 229.897 403.864 232.262C403.864 232.349 403.994 232.349 404.011 232.262C404.739 230.002 405.276 227.647 405.795 225.335C406.315 223.023 406.903 220.694 407.423 218.408C408.471 213.75 409.7 209.135 410.609 204.45C410.615 204.435 410.618 204.42 410.617 204.404C410.617 204.388 410.613 204.372 410.607 204.358C410.601 204.344 410.591 204.33 410.58 204.32C410.568 204.309 410.555 204.3 410.54 204.294C410.525 204.289 410.509 204.286 410.494 204.286C410.478 204.287 410.462 204.29 410.448 204.297C410.433 204.303 410.42 204.312 410.409 204.324C410.398 204.335 410.39 204.349 410.384 204.364Z" fill="#263238"/>
<path opacity="0.1" d="M430.715 253.779C427.624 256.29 424.654 257.788 421.926 257.753C405.743 257.615 382.365 216.962 374.26 199.402C369.247 188.526 369.203 178.681 373.758 176.56L430.715 253.779Z" fill="black"/>
<path d="M405.613 293.358H300.349C299.189 291.228 316.437 199.03 351.938 173.062C359.817 167.304 373.792 171.01 377.671 176.612C397.206 204.762 405.613 293.358 405.613 293.358Z" fill="#DDB05B"/>
<path d="M400.141 252.428C397.513 251.498 394.938 250.425 392.426 249.216C388.902 247.527 385.499 245.657 382.113 243.683L381.62 243.388C378.156 241.336 374.693 239.163 371.299 236.972L370.814 236.66L368.511 235.171C360.718 230.175 353.046 225.032 344.725 221.031C340.612 218.975 336.245 217.472 331.737 216.564C329.475 216.16 327.172 216.032 324.879 216.183C324.308 216.183 323.745 216.304 323.147 216.382C322.758 216.46 322.368 216.512 321.97 216.59C322.03 216.451 322.082 216.321 322.152 216.183C322.463 216.122 322.784 216.07 323.095 216.001C323.667 215.931 324.247 215.845 324.827 215.802C327.143 215.646 329.469 215.771 331.754 216.174C336.31 217.075 340.724 218.581 344.881 220.65C353.245 224.651 360.969 229.794 368.744 234.773L371.03 236.236L371.524 236.548C374.987 238.773 378.451 240.981 382.044 243.068L382.538 243.362C385.828 245.276 389.179 247.094 392.625 248.731C395.032 249.882 397.498 250.908 400.011 251.805L400.141 252.428ZM390.772 208.468L390.417 208.805C383.741 215.308 378.754 223.239 374.052 231.171C373.059 232.862 372.061 234.551 371.056 236.236C370.978 236.383 370.9 236.522 370.814 236.66C369.541 238.808 368.259 240.947 366.926 243.051C365.757 244.904 364.536 246.731 363.237 248.497C363.116 248.661 363.004 248.826 362.882 248.982C361.568 250.757 360.151 252.454 358.64 254.065C357.064 255.736 355.323 257.245 353.444 258.567L352.743 259.061C352.509 259.225 352.249 259.355 352.007 259.502L350.526 260.368C349.506 260.883 348.453 261.331 347.375 261.71C343.007 263.161 338.435 263.9 333.832 263.901C329.246 263.883 324.676 263.363 320.203 262.351C315.874 261.433 311.675 260.204 307.44 258.974C307.44 259.113 307.371 259.251 307.328 259.381C311.553 260.619 315.796 261.866 320.108 262.793C324.634 263.825 329.259 264.359 333.902 264.386C338.556 264.388 343.18 263.646 347.6 262.186C348.703 261.807 349.779 261.353 350.821 260.827L352.336 259.961C352.592 259.825 352.841 259.674 353.081 259.511L353.799 259.009C355.707 257.673 357.474 256.147 359.073 254.454C360.684 252.729 362.194 250.91 363.592 249.008C363.722 248.843 363.835 248.687 363.947 248.523C365.177 246.843 366.337 245.12 367.411 243.371C368.753 241.267 370.008 239.128 371.307 236.99L371.558 236.565L374.563 231.491C379.273 223.568 384.261 215.706 390.867 209.282L390.98 209.178C390.902 208.927 390.833 208.693 390.772 208.468ZM395.768 229.032C395.102 229.898 394.426 230.712 393.742 231.543C390.875 235.147 387.671 238.47 384.174 241.466C383.482 242.012 382.789 242.557 382.07 243.068L381.62 243.388C380.618 244.096 379.567 244.732 378.477 245.293L377.723 245.7C377.472 245.839 377.195 245.934 376.935 246.055L375.36 246.731C374.285 247.119 373.186 247.434 372.069 247.674C369.386 248.249 366.649 248.539 363.904 248.54H363.237C361.61 248.54 359.982 248.41 358.363 248.237C353.793 247.662 349.301 246.585 344.967 245.025C340.638 243.527 336.369 241.683 332.127 239.83C327.904 237.919 323.566 236.274 319.138 234.903C317.831 234.53 316.541 234.201 315.155 233.959L315.025 234.331C316.376 234.582 317.718 234.903 319.026 235.284C323.428 236.659 327.739 238.307 331.936 240.219C336.179 242.046 340.422 243.899 344.794 245.414C349.165 246.987 353.694 248.079 358.302 248.67C359.826 248.843 361.35 248.956 362.874 248.982C363.099 248.982 363.315 248.982 363.54 248.982C366.448 249.029 369.351 248.756 372.199 248.168C373.338 247.916 374.46 247.595 375.559 247.207L377.169 246.514C377.438 246.393 377.706 246.298 377.966 246.159L378.737 245.743C379.919 245.141 381.054 244.449 382.131 243.674L382.581 243.354C383.239 242.877 383.888 242.375 384.529 241.864C388.062 238.856 391.298 235.516 394.192 231.89C394.77 231.18 395.347 230.461 395.924 229.733C395.872 229.508 395.82 229.266 395.768 229.032ZM384.893 190.717C384.287 190.864 383.681 191.003 383.075 191.124L381.386 191.453C380.823 191.557 380.252 191.592 379.654 191.67L377.923 191.869L376.191 191.938C373.904 192.086 371.608 191.964 369.35 191.574C365.808 190.962 362.376 189.827 359.168 188.206L358.302 187.782C357.696 187.47 357.098 187.141 356.51 186.803C352.546 184.476 348.827 181.755 345.409 178.682L345.028 179.063C348.478 182.169 352.228 184.924 356.224 187.288C356.639 187.531 357.09 187.765 357.488 187.99L358.354 188.423C361.778 190.219 365.457 191.478 369.264 192.155C374.54 192.895 379.911 192.601 385.075 191.289C385.04 191.098 384.962 190.908 384.893 190.717ZM378.728 178.205C374.129 181.29 369.222 183.887 364.086 185.955C362.223 186.681 360.318 187.291 358.38 187.782L357.566 187.99C355.315 188.513 353.029 188.869 350.725 189.055L348.994 189.167C348.422 189.211 347.851 189.167 347.262 189.167H345.53L343.798 189.029C341.712 188.908 339.645 188.563 337.633 187.998C337.512 188.163 337.391 188.327 337.278 188.501C344.194 190.237 351.434 190.21 358.337 188.423L359.202 188.206C360.93 187.749 362.629 187.194 364.294 186.544C369.457 184.462 374.39 181.85 379.014 178.751L378.728 178.205ZM404.626 284.301C403.76 284.301 402.825 284.379 401.925 284.405H401.855L401.327 284.448C396.89 284.912 392.577 286.195 388.607 288.232C385.767 289.715 383.054 291.43 380.494 293.358H381.04C383.482 291.55 386.065 289.94 388.763 288.544C392.767 286.499 397.121 285.227 401.596 284.794H401.916H402.124C402.99 284.794 403.804 284.699 404.635 284.708C404.652 284.552 404.643 284.431 404.626 284.301ZM405.076 288.284C404.135 287.089 403.163 285.914 402.158 284.76C402.063 284.639 401.959 284.526 401.855 284.413L401.5 283.998C398.475 280.472 394.996 277.362 391.153 274.75C389.203 273.478 387.103 272.451 384.902 271.694C384.356 271.512 383.785 271.356 383.23 271.2C382.676 271.044 382.096 270.923 381.499 270.845C380.356 270.629 379.187 270.611 378.035 270.499C373.38 270.329 368.736 271.067 364.363 272.672C360.03 274.319 355.893 276.439 352.024 278.993C345.097 283.452 338.785 288.7 332.04 293.358H332.326C339.036 288.777 345.314 283.625 352.172 279.261C356.025 276.726 360.149 274.626 364.467 273.001C368.796 271.416 373.393 270.69 378.001 270.863C379.135 270.984 380.295 271.001 381.421 271.218C381.992 271.295 382.538 271.46 383.101 271.573C383.663 271.685 384.209 271.876 384.746 272.057C386.915 272.809 388.983 273.827 390.902 275.088C394.711 277.683 398.156 280.775 401.145 284.284C401.197 284.344 401.249 284.396 401.293 284.457L401.596 284.794C402.808 286.206 403.994 287.643 405.137 289.124C405.146 288.847 405.111 288.578 405.059 288.284H405.076Z" fill="white"/>
<path d="M337.962 184.362C316.532 209.152 287.646 252.939 299.448 262.62C318.853 278.534 375.524 287.73 388.529 289.271C394.14 289.947 405.379 253.268 401.63 248.523C397.881 243.778 337.962 240.427 337.555 236.747C337.322 234.661 346.422 216.512 352.275 194.25C359.003 168.586 343.998 177.374 337.962 184.362Z" fill="#AD6359"/>
<path d="M391.811 245.501C391.811 245.501 409.007 245.371 420.255 245.813C426.533 246.055 437.252 247.441 441.781 249.735C448.552 253.156 474.684 271.815 470.303 278.249C466.328 284.067 445.911 265.191 445.911 265.191C445.911 265.191 468.199 282.422 462.129 288.57C456.059 294.717 435.824 270.317 435.824 270.317C435.824 270.317 458.336 288.501 451.072 293.869C445.582 297.895 426.013 276.837 426.013 276.837C426.013 276.837 445.244 292.622 439.781 297.012C433.72 301.861 414.454 283.556 414.454 283.556C398.695 292.371 387.612 290.12 379.819 287.583C377.992 286.933 391.811 245.501 391.811 245.501Z" fill="#AD6359"/>
<path d="M438.586 258.741C441.279 260.671 444.015 262.602 446.526 264.802C449.037 267.001 451.47 269.209 453.773 271.599C459.41 277.452 462.025 281.989 461.826 281.729C457.289 275.504 448.422 267.633 445.911 265.468C443.4 263.304 441.001 261.026 438.499 258.87C438.439 258.775 438.525 258.697 438.586 258.741Z" fill="#263238"/>
<path d="M430.62 267.667C433.945 270.265 437.347 272.741 440.56 275.504C443.772 278.266 448.119 282.249 451.124 285.21C451.349 285.435 451.124 285.868 450.881 285.652C447.764 282.812 443.132 278.932 439.98 276.127C436.828 273.322 433.789 270.404 430.55 267.728C430.498 267.719 430.568 267.624 430.62 267.667Z" fill="#263238"/>
<path d="M422.377 274.093C427.667 277.825 432.265 282.526 436.663 287.245C436.889 287.479 436.663 287.514 436.386 287.289C431.719 282.829 428.083 279.297 422.247 274.3C422.177 274.197 422.29 274.015 422.377 274.093Z" fill="#263238"/>
<path d="M389.395 244.956C397.24 244.904 420.281 244.843 428.109 245.449C435.036 245.977 440.742 247.467 446.552 251.311C459.02 259.554 467.056 269.235 469.065 272.092C470.277 273.824 472.034 276.621 470.433 278.56C468.467 280.915 461.237 278.612 453.609 271.711C453.332 271.46 453.505 271.304 453.791 271.538C464.501 280.197 468.761 279.21 469.878 277.729C470.606 276.768 469.878 275.131 469.255 273.833C468.212 271.995 466.937 270.298 465.463 268.785C460.542 263.521 455.1 258.772 449.219 254.61C442.917 249.907 435.411 247.088 427.572 246.48C419.554 245.822 397.37 246.029 389.361 245.259C389.196 245.207 389.222 244.964 389.395 244.956Z" fill="#263238"/>
<path d="M463.402 285.106C462.96 282.968 461.419 281.011 460.198 279.245C458.715 277.022 457.012 274.953 455.115 273.071C455.037 272.993 454.89 273.071 454.968 273.192C456.583 275.08 458.084 277.064 459.462 279.132C460.194 280.269 460.859 281.449 461.453 282.665C462.016 283.834 462.683 285.184 462.389 286.518C461.834 289.064 458.596 289.003 456.682 288.319C455.443 287.852 454.249 287.273 453.115 286.587C451.571 285.603 450.106 284.5 448.734 283.288C448.621 283.184 448.31 283.228 448.431 283.34C451.288 286.059 456.7 291.713 461.116 289.644C461.963 289.269 462.655 288.612 463.071 287.785C463.488 286.957 463.605 286.01 463.402 285.106Z" fill="#263238"/>
<path d="M392.071 243.276L371.472 290.033C371.472 290.033 299.483 273.78 295.309 260.117C291.136 246.453 313.692 209.896 334.049 187.072C354.068 164.646 357.029 179.859 352.05 197.202C347.071 214.546 338.906 234.539 339.815 236.037C340.725 237.535 392.071 243.276 392.071 243.276Z" fill="#DDB05B"/>
<path d="M344.448 220.443C344.396 220.572 344.353 220.711 344.301 220.841C340.302 218.874 336.064 217.436 331.694 216.564C329.431 216.16 327.129 216.032 324.836 216.183C324.264 216.183 323.702 216.304 323.104 216.382C322.507 216.46 321.978 216.555 321.424 216.711C320.299 216.953 319.234 217.386 318.134 217.724C313.891 219.338 309.999 221.755 306.67 224.841L307.215 223.897C310.391 221.094 314.045 218.885 318.004 217.377C319.112 217.031 320.195 216.589 321.338 216.347C321.901 216.191 322.481 216.122 323.069 216.001C323.658 215.879 324.221 215.845 324.801 215.802C327.117 215.646 329.443 215.771 331.728 216.174C336.136 217.038 340.412 218.473 344.448 220.443ZM382.546 243.362L382.053 243.068L380.079 241.899L378.884 241.76C379.75 242.306 380.693 242.86 381.603 243.388L382.096 243.683C384.694 245.198 387.291 246.653 389.958 248.012L390.166 247.536C387.603 246.211 385.066 244.817 382.546 243.362ZM368.493 240.496C367.974 241.362 367.446 242.228 366.909 243.051C365.74 244.904 364.519 246.731 363.22 248.497C363.099 248.661 362.986 248.826 362.865 248.982C361.551 250.757 360.134 252.454 358.622 254.065C357.046 255.736 355.306 257.245 353.427 258.567L352.726 259.061C352.492 259.225 352.232 259.355 351.99 259.502L350.509 260.368C349.488 260.883 348.436 261.331 347.357 261.71C342.99 263.161 338.417 263.9 333.815 263.901C329.235 263.881 324.671 263.362 320.203 262.351C315.692 261.39 311.268 260.082 306.826 258.792C302.886 257.649 298.92 256.498 294.868 255.744C294.868 255.883 294.868 256.021 294.868 256.151C298.877 256.905 302.799 258.065 306.722 259.199C311.155 260.498 315.597 261.797 320.125 262.793C324.651 263.825 329.277 264.359 333.919 264.386C338.573 264.388 343.198 263.646 347.617 262.186C348.72 261.807 349.797 261.353 350.838 260.827L352.353 259.961C352.609 259.824 352.858 259.674 353.098 259.511L353.817 259.009C355.724 257.673 357.491 256.147 359.09 254.454C360.702 252.729 362.211 250.91 363.61 249.008C363.74 248.843 363.852 248.687 363.965 248.523C365.194 246.843 366.355 245.12 367.428 243.371C368.017 242.453 368.588 241.518 369.16 240.592L368.493 240.496ZM383.144 242.228C382.789 242.505 382.425 242.782 382.053 243.042L381.603 243.362C380.6 244.07 379.55 244.706 378.459 245.267L377.706 245.674C377.455 245.813 377.178 245.908 376.918 246.029L375.342 246.705C374.268 247.093 373.169 247.408 372.052 247.648C369.368 248.223 366.631 248.513 363.887 248.514H363.22C361.592 248.514 359.964 248.384 358.345 248.211C353.776 247.636 349.283 246.559 344.95 244.999C340.621 243.501 336.352 241.657 332.109 239.804C327.886 237.893 323.549 236.248 319.121 234.877C314.679 233.604 309.943 232.911 305.345 233.812C303.882 234.106 302.466 234.598 301.137 235.275C301.05 235.448 300.964 235.63 300.886 235.803C302.309 235.045 303.834 234.496 305.414 234.175C309.934 233.31 314.61 233.985 319.008 235.258C323.41 236.633 327.722 238.281 331.919 240.193C336.161 242.02 340.404 243.873 344.777 245.388C349.152 246.971 353.688 248.071 358.302 248.67C359.826 248.843 361.35 248.956 362.874 248.982C363.099 248.982 363.315 248.982 363.54 248.982C366.448 249.029 369.351 248.756 372.199 248.168C373.338 247.916 374.46 247.595 375.559 247.207L377.169 246.514C377.438 246.393 377.706 246.298 377.966 246.159L378.737 245.743C379.919 245.141 381.054 244.449 382.131 243.674L382.581 243.354C383.031 243.025 383.447 242.678 383.932 242.332L383.144 242.228ZM345.444 178.638C345.071 178.309 344.708 177.989 344.344 177.651L343.876 177.954L345.089 179.037C347.908 181.561 350.918 183.862 354.094 185.92C354.094 185.704 354.094 185.487 354.094 185.279C351.054 183.294 348.169 181.082 345.461 178.664L345.444 178.638ZM350.708 189.029L348.976 189.141C348.405 189.185 347.833 189.141 347.245 189.141H345.513L343.781 189.003C341.491 188.866 339.225 188.465 337.027 187.808C336.066 187.522 335.114 187.193 334.179 186.812L333.971 187.046L333.772 187.271C334.781 187.694 335.813 188.061 336.863 188.371C342.347 189.835 348.074 190.153 353.687 189.306C353.687 189.089 353.747 188.882 353.782 188.665C352.821 188.856 351.773 188.977 350.725 189.055L350.708 189.029ZM378.035 270.473C373.378 270.311 368.734 271.058 364.363 272.672C360.03 274.319 355.892 276.439 352.024 278.993C349.86 280.396 347.747 281.868 345.66 283.383L345.998 283.478C348.024 282.015 350.076 280.604 352.18 279.261C356.034 276.726 360.158 274.626 364.476 273.001C368.805 271.416 373.402 270.69 378.009 270.862C378.607 270.923 379.204 270.958 379.802 271.01L379.966 270.646C379.351 270.594 378.693 270.559 378.052 270.499L378.035 270.473Z" fill="white"/>
<path d="M363.211 282.301C363.913 280.967 364.588 279.634 365.264 278.292C366.62 275.573 367.971 272.848 369.316 270.118C371.983 264.698 374.511 259.208 376.944 253.666C378.338 250.532 379.853 247.432 381.109 244.237C381.124 244.205 381.125 244.168 381.113 244.135C381.101 244.102 381.076 244.074 381.044 244.06C381.012 244.045 380.975 244.043 380.942 244.055C380.909 244.067 380.881 244.092 380.867 244.124C379.369 246.765 378.07 249.528 376.684 252.238C375.299 254.948 373.888 257.632 372.554 260.368C369.899 265.789 367.324 271.252 364.831 276.759C364.129 278.301 363.367 279.824 362.735 281.4C362.406 282.206 362.025 282.985 361.705 283.799C361.384 284.613 361.142 285.444 360.839 286.249C360.835 286.258 360.833 286.267 360.832 286.276C360.832 286.286 360.833 286.295 360.836 286.304C360.84 286.313 360.845 286.321 360.851 286.328C360.857 286.335 360.865 286.341 360.874 286.345C360.882 286.349 360.891 286.351 360.901 286.351C360.91 286.352 360.919 286.35 360.928 286.347C360.937 286.344 360.945 286.339 360.952 286.332C360.959 286.326 360.965 286.318 360.969 286.31C361.67 284.968 362.493 283.669 363.211 282.301Z" fill="#263238"/>
<path d="M373.022 286.821L371.576 290.094L371.532 290.197H371.394C364.579 288.933 357.808 287.418 351.081 285.73C344.353 284.041 337.677 282.127 331.07 279.997C324.44 277.902 317.938 275.421 311.597 272.568C308.415 271.137 305.342 269.476 302.401 267.598C300.934 266.641 299.547 265.567 298.254 264.386C296.92 263.242 295.898 261.78 295.284 260.134C296.049 261.679 297.168 263.023 298.548 264.057C299.915 265.107 301.365 266.042 302.886 266.853C305.893 268.525 308.999 270.014 312.185 271.313C318.55 273.954 325.087 276.205 331.659 278.318C338.231 280.43 344.864 282.396 351.513 284.284C358.163 286.171 364.839 288.041 371.524 289.834L371.351 289.92L373.022 286.821Z" fill="#263238"/>
<path d="M391.248 245.094L391.967 243.232L392.045 243.362C384.824 242.886 377.611 242.306 370.398 241.553C363.185 240.799 356.016 239.977 348.847 238.903C347.054 238.626 345.262 238.332 343.469 237.985C342.604 237.803 341.677 237.63 340.751 237.37C340.517 237.301 340.292 237.232 340.041 237.137C339.897 237.09 339.757 237.029 339.625 236.955C339.524 236.901 339.428 236.837 339.339 236.764C339.246 236.686 339.167 236.592 339.105 236.487C339.07 236.42 339.038 236.35 339.01 236.279C339.005 236.245 339.005 236.21 339.01 236.176C338.976 235.846 338.993 235.513 339.062 235.188C339.105 234.955 339.149 234.704 339.209 234.487C340.127 230.894 341.287 227.499 342.465 224.097C344.82 217.248 347.383 210.485 350.085 203.766C347.998 210.693 345.859 217.62 343.729 224.547C342.708 228.01 341.582 231.474 340.794 234.937C340.742 235.154 340.716 235.353 340.673 235.561C340.629 235.769 340.673 236.011 340.629 235.924C340.62 235.878 340.602 235.835 340.577 235.795C340.577 235.708 340.422 235.621 340.456 235.639C340.413 235.639 340.491 235.656 340.456 235.639L340.673 235.725L341.244 235.907C342.11 236.132 342.976 236.297 343.842 236.47C345.574 236.79 347.383 237.067 349.158 237.336C352.726 237.873 356.299 238.378 359.878 238.851L370.623 240.297C377.784 241.25 384.945 242.271 392.106 243.319H392.236L392.184 243.432L391.248 245.094Z" fill="#263238"/>
<path d="M350.855 208.199C350.347 209.421 349.706 210.583 348.942 211.663C348.224 212.768 347.349 213.763 346.344 214.616C347.002 213.464 347.704 212.373 348.448 211.291C349.171 210.201 349.976 209.167 350.855 208.199Z" fill="#263238"/>
<path d="M371.835 192.207C365.722 193.938 354.708 184.994 350.189 177.539C349.877 177.028 351.106 155.97 350.916 151.77C350.916 150.904 377.533 156.965 377.533 156.965C377.533 156.965 375.342 165.884 375.723 173.201C375.749 173.824 377.732 190.527 371.835 192.207Z" fill="#AD6359"/>
<path d="M350.509 164.958C362.969 173.755 375.109 170.378 375.619 170.222C375.824 165.759 376.442 161.324 377.464 156.974C377.464 156.974 350.795 150.913 350.838 151.779C350.994 153.745 350.777 159.425 350.509 164.958Z" fill="#263238"/>
<path d="M377.403 139.622C378.087 145.839 383.066 150.394 388.512 149.787C393.959 149.181 397.829 143.666 397.171 137.457C396.513 131.249 391.517 126.686 386.062 127.292C380.607 127.898 376.719 133.414 377.403 139.622Z" fill="#455A64"/>
<path d="M374.251 140.367C375.013 147.294 380.546 152.342 386.607 151.675C392.668 151.008 396.998 144.869 396.21 137.951C395.422 131.033 389.924 125.976 383.854 126.643C377.784 127.309 373.489 133.457 374.251 140.367Z" fill="#C7C7C7"/>
<path d="M347.227 120.131C344.318 129.465 349.089 156.498 355.696 162.559C365.281 171.348 381.057 172.274 388.538 160.741C395.794 149.554 388.954 114.443 381.559 108.927C370.675 100.788 351.522 106.355 347.227 120.131Z" fill="#AD6359"/>
<path d="M369.688 137.102C369.688 137.042 369.567 137.215 369.584 137.293C369.982 139.094 370.147 141.233 368.623 142.151C368.571 142.151 368.623 142.272 368.623 142.246C370.606 141.579 370.363 138.748 369.688 137.102Z" fill="#263238"/>
<path d="M367.705 135.518C364.744 135.856 365.636 141.761 368.381 141.449C371.125 141.138 370.19 135.241 367.705 135.518Z" fill="#263238"/>
<path d="M380.2 135.682C380.2 135.613 380.356 135.752 380.364 135.83C380.581 137.665 381.144 139.726 382.884 140.09C382.936 140.09 382.953 140.194 382.884 140.194C380.815 140.211 380.113 137.457 380.2 135.682Z" fill="#263238"/>
<path d="M381.542 133.509C384.451 132.842 385.568 138.704 382.875 139.328C380.183 139.951 379.083 134.089 381.542 133.509Z" fill="#263238"/>
<path d="M364.969 133.171C365.712 132.829 366.435 132.444 367.134 132.02C367.952 131.721 368.649 131.161 369.117 130.426C369.218 130.166 369.231 129.88 369.152 129.612C369.074 129.345 368.909 129.11 368.684 128.946C368.191 128.687 367.638 128.565 367.082 128.593C366.526 128.62 365.988 128.796 365.523 129.102C364.48 129.572 363.649 130.415 363.194 131.466C363.103 131.711 363.086 131.977 363.144 132.232C363.202 132.487 363.334 132.719 363.522 132.9C363.711 133.082 363.948 133.204 364.205 133.252C364.462 133.3 364.728 133.272 364.969 133.171Z" fill="#263238"/>
<path d="M383.412 130.21C382.594 130.17 381.779 130.086 380.97 129.959C380.101 129.992 379.246 129.736 378.537 129.232C378.343 129.029 378.221 128.768 378.191 128.489C378.161 128.21 378.225 127.929 378.373 127.69C378.735 127.267 379.204 126.947 379.73 126.763C380.256 126.579 380.821 126.538 381.369 126.643C382.511 126.69 383.595 127.162 384.408 127.967C384.582 128.16 384.697 128.399 384.738 128.656C384.779 128.912 384.745 129.175 384.639 129.413C384.534 129.65 384.362 129.852 384.144 129.993C383.926 130.135 383.672 130.21 383.412 130.21Z" fill="#263238"/>
<path d="M370.693 154.238C371.195 154.602 371.723 155.104 372.424 155.104C373.103 154.989 373.749 154.733 374.321 154.351C374.331 154.338 374.346 154.33 374.362 154.328C374.378 154.327 374.395 154.332 374.407 154.342C374.42 154.352 374.428 154.367 374.429 154.383C374.431 154.4 374.426 154.416 374.416 154.429C374.21 154.829 373.899 155.166 373.516 155.403C373.133 155.639 372.693 155.766 372.243 155.771C371.856 155.731 371.489 155.578 371.19 155.33C370.891 155.081 370.673 154.75 370.563 154.377C370.485 154.29 370.615 154.186 370.693 154.238Z" fill="#263238"/>
<path d="M371.784 148.48C372.357 149.132 373.059 149.659 373.846 150.027C374.633 150.395 375.487 150.596 376.355 150.619C377.116 150.649 377.877 150.57 378.615 150.385C378.758 150.359 378.897 150.318 379.031 150.264C379.163 150.23 379.293 150.189 379.421 150.142C379.516 150.11 379.597 150.048 379.654 149.965C379.71 149.883 379.738 149.784 379.732 149.684C379.727 149.621 379.712 149.56 379.689 149.502V149.346C379.507 147.934 379.048 145.813 379.048 145.813C379.602 145.995 382.408 146.774 382.252 146.047C380.97 139.986 379.542 133.301 376.987 127.578C376.97 127.54 376.94 127.51 376.902 127.493C376.864 127.475 376.822 127.472 376.782 127.484C376.742 127.495 376.708 127.521 376.685 127.555C376.662 127.59 376.653 127.632 376.658 127.673C377.663 133.518 379.689 139.146 380.797 144.99C379.799 144.698 378.764 144.549 377.723 144.549C377.533 144.635 378.685 148.627 378.711 149.268C378.716 149.291 378.716 149.314 378.711 149.337C376.39 149.995 374.502 149.554 371.965 148.315C371.775 148.229 371.654 148.35 371.784 148.48Z" fill="#263238"/>
<path d="M377.671 149.796C377.056 150.916 376.161 151.859 375.074 152.532C374.467 152.878 373.769 153.029 373.074 152.965C371.558 152.8 371.342 151.467 371.411 150.281C371.469 149.65 371.599 149.028 371.801 148.428C373.562 149.497 375.619 149.976 377.671 149.796Z" fill="#263238"/>
<path d="M375.065 152.558C374.458 152.904 373.76 153.055 373.065 152.991C371.55 152.826 371.333 151.493 371.403 150.307C373.022 150.203 374.702 151.034 375.065 152.558Z" fill="#FF99BA"/>
<path opacity="0.2" d="M351.661 129.734C350.596 132.418 348.405 138.722 347.158 139.163C345.972 130.4 345.929 122.452 348.102 117.568C349.001 115.551 350.263 113.717 351.825 112.156C352.007 114.503 352.795 126.928 351.661 129.734Z" fill="#263238"/>
<path d="M375.083 117.205C374.341 118.49 373.282 119.563 372.007 120.321C370.732 121.079 369.283 121.497 367.801 121.534C366.291 121.574 364.796 121.227 363.458 120.527C362.12 119.827 360.983 118.796 360.155 117.534C360.15 117.526 360.144 117.519 360.137 117.513C360.13 117.508 360.121 117.503 360.113 117.501C360.104 117.499 360.095 117.498 360.085 117.499C360.076 117.5 360.068 117.503 360.06 117.508C360.052 117.512 360.045 117.518 360.039 117.526C360.033 117.533 360.029 117.541 360.027 117.55C360.024 117.559 360.024 117.568 360.025 117.577C360.026 117.586 360.029 117.595 360.034 117.603C360.787 119.012 361.911 120.189 363.284 121.005C364.658 121.822 366.229 122.247 367.826 122.235C369.392 122.147 370.906 121.649 372.218 120.79C373.529 119.931 374.592 118.743 375.299 117.343C375.317 117.315 375.324 117.28 375.316 117.246C375.309 117.213 375.289 117.184 375.26 117.166C375.231 117.147 375.196 117.141 375.163 117.148C375.13 117.156 375.101 117.176 375.083 117.205Z" fill="#263238"/>
<path d="M393.145 103.273C391.897 100.972 389.876 99.1868 387.439 98.2334C384.062 96.9 380.676 97.7918 377.325 98.753C377.307 98.753 377.289 98.7603 377.276 98.7733C377.263 98.7863 377.256 98.8039 377.256 98.8222C377.256 98.8406 377.263 98.8582 377.276 98.8712C377.289 98.8842 377.307 98.8915 377.325 98.8915C380.174 98.0862 383.118 97.4368 386.027 98.32C388.435 99.0404 390.521 100.57 391.932 102.649C393.309 104.803 393.865 107.38 393.497 109.91C393.13 112.439 391.865 114.752 389.932 116.425C388.793 117.36 387.475 118.052 386.059 118.458C384.643 118.865 383.159 118.977 381.698 118.789C381.585 118.789 381.533 118.945 381.654 118.962C383.644 119.3 385.687 119.076 387.556 118.316C389.425 117.556 391.045 116.29 392.234 114.66C393.423 113.031 394.134 111.102 394.287 109.09C394.44 107.078 394.03 105.064 393.101 103.273H393.145Z" fill="#263238"/>
<path d="M346.439 125.526C346.439 125.526 340.179 117.482 343.21 111.672C344.941 108.373 352.397 107.463 352.397 107.463C352.397 107.463 354.128 103.645 360.025 101.168C365.922 98.6921 373.879 100.147 373.879 100.147C373.879 100.147 379.169 95.7481 385.231 97.9301C393.681 100.978 394.755 112.849 387.69 117.958C382.72 121.551 374.511 118.036 374.511 118.036C373.818 118.252 367.324 123.898 360.709 118.382C360.709 118.382 356.942 123.127 352.449 121.049C352.023 122.319 351.22 123.429 350.146 124.229C349.071 125.029 347.778 125.482 346.439 125.526Z" fill="#263238"/>
<path d="M352.864 142.168C352.864 142.168 346.639 133.509 342.707 135.752C338.776 137.994 343.573 150.575 348.214 152.203C348.797 152.46 349.426 152.596 350.062 152.603C350.699 152.611 351.331 152.489 351.919 152.247C352.508 152.004 353.042 151.645 353.488 151.191C353.935 150.737 354.285 150.198 354.518 149.606L352.864 142.168Z" fill="#AD6359"/>
<path d="M344.162 139.336C344.084 139.336 344.075 139.432 344.162 139.458C347.444 140.739 349.201 143.735 350.448 146.852C349.461 145.657 348.136 145.017 346.535 146.194C346.448 146.255 346.535 146.385 346.621 146.367C347.192 146.186 347.804 146.184 348.376 146.362C348.947 146.54 349.45 146.889 349.816 147.363C350.432 148.169 350.958 149.04 351.383 149.961C351.539 150.246 352.059 150.082 351.946 149.753V149.675C351.946 145.467 348.63 139.691 344.162 139.336Z" fill="#263238"/>
<path d="M347.678 136.107C347.678 136.107 344.309 122.686 346.933 114.46C349.851 105.316 360.856 96.3633 373.862 100.164C373.862 100.164 359.428 102.026 352.414 114.088C349.193 119.629 352.284 135.631 352.284 135.631L347.678 136.107Z" fill="#C7C7C7"/>
<path d="M361.653 140.626C362.969 147.553 359.133 154.082 353.072 155.242C347.011 156.403 341.019 151.779 339.694 144.852C338.369 137.925 342.214 131.396 348.275 130.236C354.336 129.076 360.328 133.717 361.653 140.626Z" fill="#C7C7C7"/>
<path d="M358.38 140.852C359.566 147.06 356.111 152.974 350.665 153.987C345.219 155 339.833 150.827 338.647 144.627C337.46 138.427 340.906 132.505 346.353 131.492C351.799 130.478 357.185 134.635 358.38 140.852Z" fill="#455A64"/>
<path d="M14.8096 293.358H121.018L99.8384 170.17H20.4204L14.8096 293.358Z" fill="#DBDBDB"/>
<path d="M14.8096 293.358H24.1177L29.3476 170.17H20.4204L14.8096 293.358Z" fill="#A6A6A6"/>
<path d="M77.7587 116.443C67.8963 126.253 65.0649 142.419 65.0649 142.419C65.0649 142.419 55.6096 158.689 58.2505 167.529C58.949 170.036 60.2452 172.336 62.0278 174.231C63.8103 176.127 66.0262 177.562 68.4851 178.413L67.55 173.53C67.55 173.53 70.7191 179.807 81.3087 182.336C91.8984 184.864 105.908 181.608 113.199 177.92C117.52 175.756 121.207 172.511 123.901 168.499L121.174 175.599C121.174 175.599 131.452 175.235 137.556 164.299C143.66 153.363 126.126 137.648 124.637 134.262C123.148 130.877 121.26 106.208 95.3099 110.459C95.3446 110.399 84.5817 109.689 77.7587 116.443Z" fill="#263238"/>
<path d="M64.7706 177.712C62.0691 175.694 59.4022 173.382 57.9129 170.525C56.2889 167.563 55.7123 164.14 56.2764 160.81C56.9951 156.818 59.0991 153.294 61.1426 149.856C63.1861 146.419 65.6451 142.929 67.6973 139.319C67.8098 139.12 67.5068 138.955 67.3682 139.111C65.0625 141.819 62.9117 144.655 60.9261 147.605C58.8947 150.303 57.186 153.229 55.8348 156.324C54.5718 159.174 54.157 162.328 54.6399 165.408C55.1506 167.911 56.262 170.252 57.8782 172.231C59.7918 174.612 62.2076 176.136 64.6321 177.928C64.7706 178.041 64.9178 177.824 64.7706 177.712Z" fill="#263238"/>
<path d="M139.781 152.991C136.664 143.908 128.525 138.141 123.529 130.219C120.845 125.933 118.758 121.188 115.26 117.464C115.164 117.36 114.991 117.525 115.078 117.629C117.953 120.98 119.615 125.015 121.693 128.885C123.907 132.694 126.494 136.273 129.417 139.57C134.56 145.735 140.716 153.034 139.539 161.667C138.993 165.65 136.638 170.066 132.551 171.304C132.395 171.356 132.491 171.616 132.646 171.547C134.258 170.9 135.721 169.931 136.947 168.7C138.172 167.469 139.133 166.001 139.773 164.386C141.15 160.713 141.153 156.666 139.781 152.991Z" fill="#263238"/>
<path d="M140.154 155.433C140.435 151.993 139.642 148.55 137.885 145.579C136.093 142.653 133.279 140.54 130.464 138.652C127.217 136.496 123.797 134.444 121.736 131.024C121.65 130.877 121.442 131.024 121.52 131.171C124.793 136.817 131.045 139.449 135.227 144.202C140.032 149.631 140.041 157.537 136.733 163.745C134.631 167.53 131.664 170.764 128.075 173.183C128.014 173.183 128.075 173.313 128.144 173.27C134.266 169.252 139.66 163.07 140.154 155.433Z" fill="#263238"/>
<path d="M100.912 196.813C127.192 211.238 158.649 229.344 177.923 225.084C186.469 223.196 224.845 172.889 226.473 167.07C227.867 162.074 193.119 141.96 189.24 145.9C182.694 152.506 164.996 189.704 162.398 190.328C159.8 190.951 137.738 186.474 114.775 182.327C92.6778 178.361 82.6683 186.803 100.912 196.813Z" fill="#EB9481"/>
<path d="M222.741 173.339C225.737 169.564 237.963 151.052 240.205 145.138C242.448 139.224 247.695 121.759 243.349 119.56C239.002 117.36 237.08 122.339 237.08 122.339C237.08 122.339 238.127 114.607 233.547 112.815C228.966 111.022 226.196 118.876 226.196 118.876C226.196 118.876 226.689 110.858 221.987 109.351C217.286 107.845 215.831 116.278 215.831 116.278C215.831 116.278 216.628 108.97 212.246 109.351C206.982 109.862 207.051 123.508 204.072 129.846C203.397 131.284 188.305 158.057 188.305 158.057L222.741 173.339Z" fill="#EB9481"/>
<path d="M215.935 115.594C215.935 125.629 214.203 130.028 209.008 138.392C208.904 138.548 209.12 138.739 209.25 138.583C215.138 130.859 218.1 125.664 216.454 115.568C216.342 115.074 215.935 115.118 215.935 115.594Z" fill="#263238"/>
<path d="M226.143 118.088C225.278 128.478 223.425 133.292 218.567 142.462C218.498 142.592 218.714 142.722 218.792 142.592C224.308 134.002 227.148 128.738 226.663 118.217C226.689 117.741 226.187 117.611 226.143 118.088Z" fill="#263238"/>
<path d="M236.785 122.798C235.201 132.825 233.417 138.159 227.564 146.454C227.548 146.473 227.537 146.494 227.53 146.517C227.523 146.541 227.52 146.565 227.523 146.589C227.525 146.613 227.532 146.637 227.544 146.658C227.555 146.679 227.571 146.698 227.59 146.714C227.608 146.729 227.63 146.74 227.653 146.747C227.676 146.754 227.701 146.757 227.725 146.754C227.749 146.752 227.772 146.745 227.794 146.733C227.815 146.722 227.834 146.706 227.849 146.688C234.646 138.808 236.924 132.176 237.088 122.876C237.08 122.253 236.889 122.166 236.785 122.798Z" fill="#263238"/>
<path d="M180.867 161.087C180.867 161.087 180.131 148.54 181.031 142.956C181.932 137.371 192.92 117.785 197.249 119.915C202.886 122.677 198.765 135.232 195.942 141.12C195.942 141.12 208.982 147.475 207.977 157.13C206.973 166.784 180.867 161.087 180.867 161.087Z" fill="#EB9481"/>
<path d="M198.583 121.179C201.908 127.405 197.717 134.894 195.396 140.808C195.358 140.894 195.342 140.987 195.348 141.08C195.354 141.174 195.382 141.264 195.431 141.344C195.479 141.424 195.546 141.491 195.626 141.539C195.706 141.588 195.797 141.616 195.89 141.622C201.18 144.653 207.761 150.472 208.324 156.879C208.324 156.918 208.339 156.955 208.367 156.983C208.394 157.011 208.432 157.026 208.471 157.026C208.51 157.026 208.547 157.011 208.575 156.983C208.603 156.955 208.618 156.918 208.618 156.879C208.947 149.952 202.947 143.683 196.946 140.73C199.405 134.669 203.293 127.006 198.678 121.144C198.617 121.118 198.565 121.144 198.583 121.179Z" fill="#263238"/>
<path d="M156.146 188.276L124.516 214.789C124.516 214.789 105.207 204.745 90.9459 193.202C76.6849 181.66 92.4785 176.049 116.965 180.162C141.452 184.275 156.146 188.276 156.146 188.276Z" fill="#DDB05B"/>
<path d="M118.68 193.601C117.784 192.377 116.746 191.264 115.589 190.284C116.87 193.037 118.72 195.487 121.018 197.471C120.397 196.092 119.612 194.792 118.68 193.601ZM90.972 193.22L91.353 193.514C91.6041 193.246 91.8552 192.96 92.089 192.648C91.6907 192.83 91.3184 193.02 90.9547 193.254L90.972 193.22ZM143.92 193.393C142.424 193.173 140.907 193.127 139.4 193.254C140.814 193.788 142.284 194.157 143.782 194.354C145.277 194.581 146.794 194.63 148.302 194.501C146.883 193.963 145.407 193.591 143.903 193.393H143.92ZM133.331 183.141C133.311 183.719 133.331 184.297 133.391 184.873C133.602 184.353 133.782 183.821 133.928 183.279L133.331 183.141Z" fill="white"/>
<path d="M117.433 209.126C123.867 202.943 130.742 197.203 137.712 191.609C139.686 190.033 141.695 188.492 143.773 187.011C143.834 186.968 143.912 187.011 143.851 187.089C140.578 190.111 137.175 192.994 133.789 195.895C130.404 198.796 126.975 201.697 123.503 204.511C121.537 206.104 119.58 207.697 117.589 209.247C117.468 209.308 117.355 209.204 117.433 209.126Z" fill="#263238"/>
<path d="M137.954 203.523L124.507 214.78C124.507 214.78 105.198 204.744 90.9373 193.202C85.872 189.107 84.5991 185.764 86.149 183.331L137.954 203.523Z" fill="#263238"/>
<path d="M131.443 293.254H30.6465C30.6465 293.254 52.5444 208.684 72.8146 184.873C73.2648 184.327 73.7324 183.808 74.2 183.323C74.2952 183.21 74.3818 183.132 74.477 183.037C76.0462 181.361 77.8731 179.946 79.8888 178.846C80.2438 178.656 80.5988 178.474 80.9711 178.318C88.764 174.725 97.0244 177.703 102.973 182.795C104.861 184.405 126.23 212.234 128.083 222.807C129.72 232.167 123.399 242.219 123.399 242.219L131.443 293.254Z" fill="#DDB05B"/>
<path d="M108.298 238.6C104.006 239.019 99.7517 239.757 95.5697 240.808C93.4916 241.362 91.4655 242.003 89.4307 242.687C88.4176 243.033 87.4045 243.345 86.3828 243.648C85.319 243.994 84.217 244.21 83.1011 244.289C83.0805 244.289 83.0606 244.297 83.046 244.312C83.0314 244.326 83.0232 244.346 83.0232 244.367C83.0232 244.388 83.0314 244.407 83.046 244.422C83.0606 244.437 83.0805 244.445 83.1011 244.445C84.1582 244.49 85.2171 244.461 86.2702 244.358C87.2841 244.231 88.288 244.035 89.2748 243.769C91.3875 243.224 93.4656 242.592 95.5697 242.038C99.8125 240.912 104.047 239.786 108.359 238.964C108.407 238.956 108.45 238.929 108.478 238.889C108.507 238.849 108.518 238.8 108.51 238.752C108.502 238.703 108.475 238.66 108.436 238.632C108.396 238.604 108.346 238.592 108.298 238.6Z" fill="#263238"/>
<path d="M118.948 242.315C115.406 241.974 111.847 241.832 108.289 241.89C106.558 241.934 104.748 242.072 102.973 242.254C102.107 242.349 101.241 242.453 100.445 242.566C99.6479 242.678 98.6089 242.938 97.6824 243.051C97.5872 243.051 97.5872 243.215 97.6824 243.206C98.5483 243.128 99.4574 243.206 100.341 243.163L102.999 243.068C104.731 243.016 106.54 242.973 108.315 242.895C111.865 242.747 115.407 242.635 118.957 242.6C119.147 242.609 119.13 242.332 118.948 242.315Z" fill="#263238"/>
<path d="M63.238 204.753C62.7618 204.147 62.2769 203.55 61.7487 203.022L61.3764 203.801C61.7227 204.338 62.095 204.866 62.476 205.377C63.373 206.592 64.4106 207.696 65.5672 208.667C64.9352 207.282 64.1542 205.97 63.238 204.753ZM74.9359 182.57C74.7596 183.922 74.7305 185.289 74.8494 186.648C75.3873 185.228 75.7507 183.748 75.9317 182.241C75.9317 182.016 75.9923 181.782 76.0183 181.557C75.6546 181.877 75.291 182.215 74.9359 182.57ZM105.527 210.745C104.988 212.163 104.616 213.64 104.419 215.144C104.201 216.643 104.151 218.162 104.272 219.672C104.815 218.257 105.182 216.779 105.363 215.274C105.6 213.776 105.656 212.256 105.527 210.745ZM86.2616 259.511C85.728 260.924 85.3618 262.395 85.1706 263.893C84.951 265.392 84.9045 266.911 85.032 268.421C86.0612 265.57 86.4801 262.535 86.2616 259.511ZM53.5142 222.694C52.9855 224.118 52.6195 225.596 52.4232 227.102C52.2028 228.598 52.1563 230.115 52.2847 231.621C52.8146 230.202 53.1778 228.726 53.367 227.223C53.594 225.724 53.6434 224.204 53.5142 222.694ZM80.6161 216.512C79.1198 216.292 77.6032 216.246 76.0962 216.373C77.5097 216.907 78.9798 217.276 80.4775 217.473C81.9731 217.7 83.4902 217.749 84.9974 217.62C83.5888 217.072 82.1215 216.688 80.6247 216.477L80.6161 216.512ZM116.879 258.074C115.38 257.854 113.86 257.808 112.35 257.935C115.201 258.965 118.237 259.383 121.26 259.165C119.85 258.63 118.383 258.258 116.888 258.057L116.879 258.074ZM49.1848 254.082C47.7143 253.869 46.2248 253.817 44.7429 253.926H44.6563H44.7343C46.133 254.442 47.5852 254.8 49.0636 254.991C50.5599 255.211 52.0765 255.258 53.5835 255.13C52.1627 254.612 50.6866 254.26 49.1848 254.082ZM87.214 289.834C85.7177 289.615 84.2011 289.568 82.6942 289.696C85.5477 290.727 88.587 291.143 91.6127 290.917C90.181 290.388 88.6936 290.025 87.1794 289.834H87.214ZM46.3101 285.453C44.8109 285.233 43.2914 285.187 41.7816 285.314C43.196 285.841 44.666 286.204 46.1629 286.397C47.661 286.629 49.182 286.676 50.6915 286.535C49.266 286.006 47.7842 285.643 46.2755 285.453H46.3101ZM88.2011 194.986C86.9814 195.893 85.8688 196.936 84.8848 198.095C86.2664 197.466 87.5734 196.685 88.7813 195.766C89.9987 194.862 91.1033 193.815 92.0716 192.648C90.6994 193.283 89.4013 194.067 88.2011 194.986ZM98.9899 241.337C97.7731 242.231 96.6683 243.269 95.6996 244.428C97.0771 243.803 98.3762 243.018 99.5701 242.09C100.789 241.198 101.894 240.16 102.86 238.999C101.484 239.632 100.185 240.422 98.9899 241.354V241.337ZM61.1599 269.668C59.9361 270.561 58.8279 271.602 57.8609 272.768C59.2331 272.133 60.5311 271.349 61.7314 270.43C62.9486 269.526 64.0609 268.49 65.0477 267.339C63.6576 267.953 62.3512 268.742 61.1599 269.685V269.668ZM123.988 228.911C123.091 227.688 122.054 226.575 120.897 225.595C122.177 228.348 124.028 230.797 126.326 232.782C125.704 231.408 124.919 230.115 123.988 228.929V228.911ZM111.095 281.357C110.191 280.14 109.155 279.028 108.004 278.041C108.611 279.431 109.393 280.738 110.333 281.929C111.227 283.148 112.265 284.256 113.424 285.228C112.793 283.856 112.011 282.558 111.095 281.357ZM73.1349 240.107C72.2363 238.886 71.1989 237.773 70.0437 236.791C70.6577 238.179 71.4431 239.485 72.3816 240.679C73.2736 241.9 74.3117 243.008 75.4728 243.978C74.8422 242.603 74.0579 241.305 73.1349 240.107Z" fill="white"/>
<path d="M70.7537 185.531C51.3668 201.16 1.71761 263.096 12.9134 277.409C24.1091 291.721 98.5223 285.201 120.126 278.43C126.551 276.421 109.025 235.647 102.081 233.769C96.297 232.201 64.2251 241.683 63.6016 239.83C62.9003 237.734 71.5244 226.14 82.4863 201.021C95.1281 172.049 79.3172 178.63 70.7537 185.531Z" fill="#EB9481"/>
<path d="M137.106 230.366C151.921 232.097 155.462 234.79 168.736 229.595C177.447 226.192 183.361 230.288 176.988 237.639C166.597 249.666 146.994 251.493 140.024 250.142L137.106 230.366Z" fill="#EB9481"/>
<path d="M95.5525 234.288C95.5525 234.288 113.935 229.534 129.902 229.794C140.95 229.976 164.935 233.05 181.213 261.719C185.075 268.516 185.759 280.95 175.412 272.109C168.069 265.849 165.307 259.658 160.372 256.792C160.372 256.792 159.359 272.698 152.397 276.309C146.308 279.457 140.003 282.168 133.53 284.422C132.844 283.332 132.231 282.198 131.694 281.028C131.694 281.028 124.871 283.781 114.377 279.963L95.5525 234.288Z" fill="#EB9481"/>
<path d="M140.422 231.656C144.751 235.535 153.687 243.899 158.605 253.303C164.112 263.745 171.905 285.34 164.156 289.332C158.476 292.258 154.77 284.266 154.77 284.266C154.77 284.266 156.112 293.877 150.44 295.393C145.245 296.778 142.743 290.423 142.743 290.423C142.743 290.423 142.552 296.389 137.288 296.761C130.949 297.194 132.387 284.639 125.581 279.521C124.048 278.37 140.422 231.656 140.422 231.656Z" fill="#EB9481"/>
<path d="M146.639 257.329C150.102 261.658 155.393 273.434 154.943 284.11C154.943 284.353 154.744 284.474 154.709 284.249C153.085 275.004 150.343 265.99 146.544 257.407C146.533 257.394 146.528 257.378 146.53 257.362C146.532 257.346 146.54 257.331 146.552 257.32C146.565 257.31 146.581 257.305 146.597 257.307C146.614 257.308 146.629 257.316 146.639 257.329Z" fill="#263238"/>
<path d="M136.257 263.148C138.855 267.174 143.782 279.599 142.95 290.38C142.95 290.622 142.734 290.726 142.708 290.501C141.564 281.179 139.365 272.017 136.153 263.191C136.153 263.179 136.157 263.167 136.163 263.157C136.17 263.147 136.179 263.139 136.191 263.134C136.202 263.13 136.214 263.128 136.226 263.131C136.238 263.133 136.249 263.139 136.257 263.148Z" fill="#263238"/>
<path d="M160.398 256.723C164.727 259.321 167.143 262.377 170.364 266.126C171.938 268.004 173.615 269.793 175.386 271.486C177.014 273.001 179.412 275.279 181.854 274.196C183.214 273.59 183.586 271.962 183.698 270.612C183.805 269.093 183.584 267.569 183.049 266.144C183.049 266.074 183.153 266.023 183.179 266.1C183.71 267.358 184.06 268.684 184.218 270.04C184.424 271.315 184.239 272.621 183.69 273.789C182.339 276.179 179.222 275.729 177.265 274.473C176.107 273.672 175.031 272.758 174.053 271.746C173.091 270.802 172.174 269.815 171.282 268.811C169.455 266.733 167.749 264.559 165.948 262.472C164.183 260.482 162.291 258.608 160.285 256.862C160.207 256.792 160.311 256.671 160.398 256.723Z" fill="#263238"/>
<path d="M165.905 275.651C165.394 272.681 161.722 259.918 160.268 256.809C160.259 256.793 160.256 256.774 160.261 256.756C160.266 256.738 160.278 256.723 160.294 256.714C160.31 256.705 160.329 256.702 160.347 256.707C160.365 256.712 160.38 256.724 160.389 256.74C163.134 261.13 166.597 271.789 167.203 275.071C167.81 278.352 168.39 282.413 167.55 285.643C166.286 290.509 162.822 290.596 161.567 290.526C160.083 290.418 158.682 289.807 157.592 288.795C156.352 287.501 155.386 285.969 154.752 284.292C154.752 284.214 154.83 284.145 154.873 284.223C156.068 286.578 158.38 289.202 161.116 289.539C161.722 289.633 162.341 289.605 162.936 289.456C163.53 289.308 164.089 289.041 164.58 288.673C165.608 287.69 166.244 286.367 166.372 284.95C166.75 281.846 166.592 278.701 165.905 275.651Z" fill="#263238"/>
<path d="M142.95 290.379C143.479 291.133 144.353 293.514 146.457 294.518C147.189 294.935 148.011 295.168 148.853 295.197C149.694 295.225 150.53 295.049 151.289 294.683C152.735 293.785 153.775 292.36 154.189 290.708C154.539 288.596 154.728 286.46 154.752 284.318C154.752 284.214 154.882 284.206 154.891 284.318C155.16 286.641 155.079 288.99 154.648 291.289C154.445 292.189 154.064 293.04 153.527 293.79C152.99 294.541 152.309 295.177 151.523 295.661C150.69 296.116 149.748 296.331 148.801 296.284C147.853 296.237 146.937 295.928 146.154 295.393C145.366 294.847 143.08 292.38 142.691 290.44C142.699 290.379 142.924 290.345 142.95 290.379Z" fill="#263238"/>
<path d="M126.248 278.759C126.874 279.453 127.417 280.217 127.867 281.037C128.378 281.903 128.863 282.725 129.322 283.591C130.234 285.341 130.962 287.181 131.495 289.081C132.049 290.986 132.482 293.064 133.789 294.631C134.401 295.406 135.242 295.968 136.191 296.239C137.141 296.509 138.152 296.474 139.08 296.138C140.063 295.747 140.88 295.028 141.392 294.103C141.985 293.105 142.382 292.003 142.561 290.856C142.557 290.845 142.556 290.834 142.557 290.823C142.558 290.812 142.562 290.801 142.569 290.792C142.575 290.783 142.584 290.775 142.594 290.77C142.604 290.765 142.615 290.762 142.626 290.762C142.637 290.762 142.648 290.765 142.658 290.77C142.668 290.775 142.676 290.783 142.683 290.792C142.689 290.801 142.693 290.812 142.694 290.823C142.696 290.834 142.695 290.845 142.691 290.856C142.617 291.896 142.437 292.926 142.154 293.93C141.826 294.831 141.268 295.632 140.535 296.25C139.766 296.837 138.85 297.201 137.887 297.302C136.925 297.403 135.954 297.237 135.08 296.822C133.14 295.956 132.049 293.999 131.374 292.059C130.62 289.903 130.118 287.678 129.261 285.548C128.819 284.422 128.395 283.297 127.858 282.214C127.321 281.132 126.577 280.006 126.126 278.846C126.075 278.777 126.178 278.681 126.248 278.759Z" fill="#263238"/>
<path d="M119.485 281.444C122.223 281.839 124.991 281.976 127.754 281.851C127.841 281.851 127.893 282.102 127.806 282.119C126.437 282.376 125.043 282.483 123.65 282.44C122.238 282.38 120.843 282.109 119.511 281.634C119.399 281.574 119.399 281.426 119.485 281.444Z" fill="#263238"/>
<path d="M34.465 249.103C39.0937 246.869 43.877 244.971 48.7779 243.423C53.6276 241.907 58.5822 240.749 63.6016 239.959C66.4677 239.483 69.3424 239.146 72.2604 238.791C72.347 238.791 72.3643 238.912 72.2604 238.92C67.2168 239.737 62.2241 240.841 57.3067 242.228C52.4117 243.561 47.5454 244.984 42.7081 246.497C39.9719 247.363 37.2704 248.332 34.5602 249.276C34.465 249.346 34.3784 249.164 34.465 249.103Z" fill="#263238"/>
<path d="M30.2482 223.136L71.2819 227.595C71.2819 227.595 81.7504 208.546 87.1967 190.994C92.6431 173.443 77.1786 176.855 59.1078 193.869C41.037 210.883 30.2482 223.136 30.2482 223.136Z" fill="#DDB05B"/>
<path d="M30.2482 223.136L71.2819 227.595C71.2819 227.595 81.7504 208.546 87.1967 190.994C92.6431 173.443 77.1786 176.855 59.1078 193.869C41.037 210.883 30.2482 223.136 30.2482 223.136Z" fill="#DDB05B"/>
<path d="M75.0051 181.998C75.0094 182.041 75.0094 182.084 75.0051 182.128C74.7854 183.627 74.7389 185.146 74.8666 186.656C75.4045 185.236 75.768 183.756 75.9489 182.249C75.9489 181.989 76.0182 181.738 76.0442 181.478L75.0051 181.998ZM53.5141 222.694C53.1383 223.639 52.8485 224.615 52.6483 225.612L53.5141 225.698C53.6093 224.699 53.6093 223.693 53.5141 222.694ZM39.2792 213.455L38.8809 213.871C39.3311 213.871 39.7467 213.871 40.2403 213.793C39.9112 213.663 39.5995 213.55 39.2792 213.455ZM76.1048 216.338C76.3472 216.434 76.5983 216.529 76.8494 216.607C76.8943 216.494 76.9463 216.384 77.0053 216.278C76.7109 216.286 76.4078 216.304 76.1048 216.338ZM63.2379 204.753C62.3345 203.536 61.2977 202.423 60.1467 201.437C60.7556 202.829 61.5382 204.138 62.4759 205.333C63.3729 206.548 64.4105 207.652 65.5671 208.623C64.9323 207.253 64.1514 205.955 63.2379 204.753Z" fill="white"/>
<path d="M69.6195 227.214C69.8446 227.214 71.3512 227.214 71.3512 227.214C71.533 226.685 75.0658 218.555 75.9317 216.823C77.7154 213.264 79.7069 209.801 81.6465 206.329C81.7071 206.216 81.8802 206.329 81.8196 206.407C80.4516 209.437 79.1354 212.468 77.7414 215.516C78.0877 215.109 78.4341 214.702 78.7718 214.286C79.4558 213.42 80.0792 212.554 80.7286 211.637C80.7892 211.559 80.9105 211.637 80.8672 211.732C80.2475 212.984 79.4643 214.149 78.538 215.195C78.1447 215.655 77.7194 216.086 77.2651 216.485C77.1526 216.737 77.04 216.996 76.9188 217.239C76.0529 218.971 71.7842 227.699 71.6283 227.69L69.6541 227.447C69.5069 227.482 69.5069 227.205 69.6195 227.214Z" fill="#263238"/>
<path d="M37.9806 216.165C46.8817 216.763 55.757 217.984 64.5802 219.369C67.0855 219.767 69.5734 220.221 72.0441 220.729C72.1133 220.729 72.1133 220.85 72.0441 220.841C67.6108 220.451 63.1862 219.88 58.7615 219.334C54.3369 218.789 49.8777 218.2 45.4531 217.499C42.9593 217.118 40.457 216.737 37.9719 216.313C37.868 216.321 37.868 216.157 37.9806 216.165Z" fill="#263238"/>
<path d="M85.1445 179.487C85.3004 181.288 92.0023 193.808 100.029 194.579C102.627 194.821 104.627 180.612 104.627 180.612L105.008 179.599L110.402 165.382L94.7298 151.831L92.4525 150.012C92.4525 150.012 91.2316 153.995 89.7683 158.974C89.699 159.208 89.6211 159.442 89.5518 159.684C89.4826 159.927 89.3787 160.23 89.3007 160.49C89.0756 161.234 88.8418 161.987 88.634 162.749C88.4695 163.33 88.305 163.892 88.1491 164.481C87.9933 165.07 87.8374 165.693 87.6642 166.3C86.5251 170.633 85.6833 175.039 85.1445 179.487Z" fill="#EB9481"/>
<path d="M89.7684 158.974C90.6609 163.312 92.4861 167.403 95.1176 170.964C97.7491 174.526 101.124 177.472 105.008 179.599L110.402 165.382L94.7299 151.831L92.4526 150.012C92.4526 150.012 91.2318 153.995 89.7684 158.974Z" fill="#263238"/>
<path d="M115.147 143.544C116.524 149.605 121.979 153.597 127.33 152.394C132.681 151.19 135.893 145.259 134.517 139.163C133.14 133.067 127.685 129.101 122.334 130.314C116.983 131.526 113.77 137.44 115.147 143.544Z" fill="#455A64"/>
<path d="M112.091 144.636C113.632 151.415 119.693 155.823 125.65 154.481C131.607 153.139 135.175 146.549 133.642 139.761C132.11 132.972 126.04 128.574 120.091 129.916C114.143 131.258 110.558 137.839 112.091 144.636Z" fill="#C7C7C7"/>
<path d="M129.599 135.959C136.872 161.633 122.317 168.863 116.775 170.456C111.744 171.876 94.4441 176.067 84.5559 151.277C74.6676 126.487 84.3048 114.988 95.6304 111.135C106.956 107.282 122.325 110.278 129.599 135.959Z" fill="#EB9481"/>
<path d="M120.663 132.73C120.053 132.79 119.44 132.816 118.827 132.808C118.183 132.931 117.516 132.836 116.931 132.539C116.764 132.41 116.645 132.23 116.592 132.026C116.539 131.823 116.554 131.607 116.636 131.413C116.857 131.057 117.17 130.766 117.541 130.571C117.913 130.376 118.33 130.284 118.749 130.305C119.602 130.21 120.46 130.436 121.156 130.937C121.307 131.063 121.418 131.229 121.476 131.416C121.534 131.603 121.538 131.803 121.486 131.992C121.434 132.181 121.328 132.351 121.183 132.482C121.037 132.612 120.856 132.699 120.663 132.73Z" fill="#263238"/>
<path d="M103.735 138.704C104.323 138.522 104.901 138.308 105.467 138.063C106.108 137.922 106.685 137.575 107.112 137.076C107.213 136.892 107.251 136.679 107.22 136.471C107.188 136.263 107.09 136.071 106.939 135.925C106.595 135.683 106.194 135.537 105.775 135.502C105.357 135.467 104.936 135.544 104.558 135.726C103.736 135.973 103.036 136.516 102.592 137.25C102.501 137.423 102.462 137.618 102.479 137.813C102.497 138.008 102.571 138.194 102.692 138.347C102.813 138.501 102.976 138.617 103.161 138.68C103.346 138.743 103.545 138.752 103.735 138.704Z" fill="#263238"/>
<path d="M108.93 143.233C108.93 143.163 108.818 143.354 108.844 143.423C109.398 145.155 109.709 147.233 108.324 148.263C108.281 148.263 108.324 148.376 108.367 148.359C110.203 147.536 109.718 144.765 108.93 143.233Z" fill="#263238"/>
<path d="M106.835 141.847C103.96 142.436 105.346 148.134 108.012 147.588C110.679 147.043 109.242 141.354 106.835 141.847Z" fill="#263238"/>
<path d="M105.787 142.419C105.371 142.869 105.016 143.553 104.436 143.761C103.856 143.969 103.085 143.527 102.497 143.06C102.436 143.017 102.393 143.06 102.41 143.155C102.661 144.246 103.354 145.268 104.566 145.147C105.778 145.025 106.203 143.882 106.203 142.713C106.211 142.497 105.96 142.246 105.787 142.419Z" fill="#263238"/>
<path d="M119.052 140.107C119.052 140.038 119.217 140.159 119.225 140.228C119.589 142.012 120.299 143.995 122.04 144.203C122.091 144.203 122.109 144.298 122.04 144.307C120.031 144.488 119.113 141.848 119.052 140.107Z" fill="#263238"/>
<path d="M120.187 137.89C122.975 137.024 124.516 142.653 121.918 143.475C119.321 144.298 117.857 138.626 120.187 137.89Z" fill="#263238"/>
<path d="M121.485 137.934C122.013 138.107 122.602 138.531 123.148 138.419C123.693 138.306 124.066 137.553 124.299 136.851C124.299 136.782 124.386 136.851 124.403 136.851C124.732 137.925 124.689 139.146 123.702 139.639C122.715 140.133 121.858 139.354 121.303 138.349C121.2 138.211 121.269 137.838 121.485 137.934Z" fill="#263238"/>
<path d="M112.931 157.468C113.433 157.805 113.97 158.333 114.662 158.221C115.325 158.077 115.95 157.797 116.498 157.398C116.508 157.386 116.523 157.378 116.539 157.376C116.556 157.374 116.572 157.379 116.585 157.39C116.597 157.4 116.605 157.415 116.607 157.431C116.608 157.447 116.604 157.464 116.593 157.476C116.406 157.877 116.114 158.219 115.748 158.467C115.382 158.716 114.956 158.861 114.515 158.888C114.129 158.868 113.757 158.733 113.448 158.5C113.139 158.267 112.908 157.946 112.783 157.58C112.723 157.485 112.853 157.424 112.931 157.468Z" fill="#263238"/>
<path d="M118.74 148.67C118.74 148.67 119.771 151.207 120.091 152.445C120.091 152.567 115.831 154.645 113.078 152.099C113.049 152.08 113.029 152.049 113.023 152.015C113.016 151.981 113.024 151.946 113.043 151.917C113.063 151.889 113.093 151.869 113.127 151.862C113.161 151.856 113.196 151.863 113.225 151.883C115.082 152.559 117.108 152.617 119 152.047C119 151.683 117.078 147.761 117.269 147.718C118.253 147.556 119.255 147.527 120.247 147.631C118.238 142.289 115.398 137.31 113.485 131.95C113.468 131.911 113.466 131.866 113.48 131.825C113.495 131.785 113.523 131.751 113.561 131.73C113.599 131.709 113.643 131.704 113.685 131.714C113.727 131.724 113.764 131.75 113.788 131.786C117.139 136.799 119.58 142.903 121.788 148.367C122.083 149.034 119.321 148.757 118.74 148.67Z" fill="#263238"/>
<path d="M118.992 152.645C118.532 153.794 117.787 154.807 116.827 155.589C116.288 155.993 115.638 156.223 114.965 156.247C113.485 156.247 113.095 155.026 113.043 153.874C113.022 153.264 113.071 152.654 113.19 152.056C115.011 152.868 117.045 153.074 118.992 152.645Z" fill="#263238"/>
<path d="M116.827 155.589C116.288 155.993 115.638 156.223 114.965 156.247C113.485 156.247 113.095 155.026 113.043 153.875C114.558 153.606 116.29 154.195 116.827 155.589Z" fill="#FF99BA"/>
<path d="M85.794 150.42C90.7641 150.74 91.3356 139.371 91.3356 139.371C91.3356 139.371 112.117 134.531 112.861 117.317C112.861 117.317 117.13 128.002 128.447 132.262C128.447 132.262 126.568 113.559 111.485 110.823C111.485 110.823 92.6258 105.23 83.1445 120.504C73.6631 135.778 82.4604 150.203 85.794 150.42Z" fill="#263238"/>
<path d="M112.861 116.044C113.272 118.67 113.115 121.354 112.402 123.915C111.73 126.517 110.52 128.951 108.852 131.058C108.443 131.588 108.001 132.092 107.528 132.565L106.835 133.301C106.592 133.526 106.333 133.734 106.073 133.95C105.553 134.366 105.051 134.816 104.514 135.206C103.977 135.596 103.389 135.916 102.783 136.262C102.497 136.427 102.22 136.609 101.917 136.765L101.051 137.18L99.2412 138.003C97.9943 138.436 96.7301 138.799 95.4746 139.146C96.6435 138.548 97.8558 138.072 99.0074 137.475L100.696 136.522L101.562 136.046C101.83 135.873 102.081 135.674 102.341 135.483C102.861 135.102 103.38 134.73 103.908 134.366C104.436 134.002 104.861 133.5 105.337 133.111L106.056 132.478L106.696 131.768C107.137 131.314 107.55 130.834 107.935 130.331C109.508 128.324 110.729 126.063 111.545 123.647C111.963 122.433 112.281 121.188 112.498 119.923C112.728 118.643 112.85 117.345 112.861 116.044Z" fill="#263238"/>
<path d="M89.4999 150.151C89.4999 150.151 82.2093 143.059 78.893 145.822C75.5767 148.584 82.1487 159.615 86.8157 160.394C87.4071 160.536 88.0212 160.558 88.621 160.456C89.2207 160.355 89.7939 160.134 90.3059 159.805C90.8179 159.477 91.2582 159.048 91.6003 158.545C91.9424 158.042 92.1793 157.476 92.2967 156.879L89.4999 150.151Z" fill="#EB9481"/>
<path d="M80.8585 148.93C80.8424 148.93 80.827 148.936 80.8156 148.948C80.8042 148.959 80.7979 148.975 80.7979 148.991C80.7979 149.007 80.8042 149.022 80.8156 149.034C80.827 149.045 80.8424 149.051 80.8585 149.051C84.1574 149.701 86.3048 152.229 88.0019 154.948C86.8763 153.995 85.5169 153.614 84.2094 154.948C84.1401 155.026 84.2094 155.13 84.322 155.095C84.8276 154.823 85.4051 154.713 85.9755 154.781C86.5458 154.849 87.0812 155.092 87.5084 155.476C88.2192 156.121 88.8579 156.841 89.4133 157.623C89.6038 157.875 90.0714 157.623 89.9069 157.338L89.8636 157.268C89.1882 153.424 85.1099 148.523 80.8585 148.93Z" fill="#263238"/>
<path d="M84.5126 146.54C84.5126 146.54 79.7849 133.942 81.4214 125.716C83.2397 116.555 94.5913 106.104 107.571 110.018C107.571 110.018 92.1323 112.33 86.6773 124.738C84.1662 130.452 88.9112 145.579 88.9112 145.579L84.5126 146.54Z" fill="#C7C7C7"/>
<path d="M91.8039 164.496C97.5339 162.711 100.529 155.968 98.4944 149.434C96.4594 142.9 90.1646 139.051 84.4346 140.835C78.7045 142.62 75.7091 149.363 77.7441 155.897C79.7791 162.431 86.0739 166.28 91.8039 164.496Z" fill="#C7C7C7"/>
<path d="M95.3705 149.96C97.1975 155.831 94.5046 161.892 89.3094 163.494C84.1141 165.096 78.5033 161.641 76.6676 155.77C74.8319 149.9 77.5335 143.839 82.7287 142.228C87.924 140.618 93.5435 144.124 95.3705 149.96Z" fill="#455A64"/>
<path d="M104.947 179.686L100.185 191.704L85.2052 176.595L81.0057 181.478C81.0057 181.478 95.7256 205.532 95.7775 204.441L100.678 194.051L107.848 201.212L107.198 183.184L104.947 179.686Z" fill="#EBEBEB"/>
<path d="M108.064 192.293C107.848 189.323 107.727 186.31 107.38 183.349C107.38 183.245 107.198 183.201 107.172 183.349C106.592 186.223 107.449 197.609 107.449 200.337C107.155 200.025 100.808 194.033 100.748 194.129C99.6826 195.774 96.0892 203.324 95.8468 204.008C93.5176 200.19 83.6639 185.132 80.9191 181.496C80.9027 181.479 80.8813 181.468 80.8582 181.465C80.8351 181.462 80.8116 181.467 80.7917 181.479C80.7717 181.491 80.7563 181.51 80.748 181.532C80.7397 181.553 80.739 181.577 80.7459 181.599C82.7981 185.634 95.5264 205.506 95.7082 205.454C97.6018 201.893 99.3126 198.237 100.834 194.501C101.908 195.808 108.315 202.571 108.333 202.129C108.413 198.848 108.323 195.565 108.064 192.293Z" fill="#263238"/>
<path d="M191.604 99.6104C191.084 104.591 189.191 109.33 186.135 113.297C183.079 117.264 178.98 120.304 174.297 122.078C169.614 123.852 164.53 124.289 159.612 123.341C154.695 122.394 150.137 120.098 146.449 116.711L132.924 118.694L139.695 107.005C138.162 103.203 137.515 99.1017 137.801 95.0123C138.088 90.923 139.302 86.9524 141.35 83.4012C143.398 79.8501 146.227 76.8114 149.623 74.5153C153.019 72.2192 156.893 70.7257 160.951 70.1481C165.01 69.5704 169.146 69.9236 173.048 71.1811C176.95 72.4385 180.515 74.5671 183.472 77.4058C186.43 80.2445 188.703 83.7188 190.119 87.5658C191.535 91.4128 192.058 95.5316 191.647 99.6104H191.604Z" fill="white"/>
<path d="M191.604 99.6103C191.08 104.594 189.193 109.337 186.149 113.317C184.654 115.305 182.867 117.057 180.85 118.512C178.858 120.022 176.663 121.243 174.33 122.14C171.995 123.054 169.544 123.637 167.048 123.872C165.801 123.986 164.548 124.009 163.298 123.941C162.043 123.912 160.792 123.781 159.558 123.552C154.57 122.654 149.932 120.384 146.163 116.997L146.483 117.092L132.976 119.17L131.997 119.318L132.491 118.452L139.236 106.736V107.204C137.65 103.329 136.976 99.1418 137.265 94.9651C137.555 90.7883 138.801 86.7341 140.907 83.1154C143.01 79.5103 145.902 76.4286 149.367 74.1017C152.828 71.8092 156.764 70.3301 160.879 69.7753C164.994 69.2205 169.181 69.6043 173.126 70.8979C177.023 72.2296 180.573 74.4159 183.517 77.2968C186.464 80.1627 188.723 83.6596 190.124 87.5245C191.524 91.3894 192.03 95.5216 191.604 99.6103ZM191.604 99.6103C192.036 95.5398 191.527 91.4245 190.118 87.5815C188.708 83.7385 186.435 80.2705 183.474 77.4446C180.512 74.6187 176.942 72.5105 173.037 71.2824C169.132 70.0543 164.998 69.7391 160.952 70.3611C156.944 70.9632 153.126 72.4737 149.791 74.7771C146.488 77.0941 143.728 80.1018 141.704 83.5917C139.711 87.0941 138.539 91.0028 138.275 95.0236C138.011 99.0445 138.662 103.073 140.18 106.806L140.275 107.048L140.145 107.265L133.339 118.937L132.854 118.218L146.388 116.322H146.578L146.708 116.452C150.335 119.837 154.832 122.145 159.696 123.119C160.904 123.361 162.129 123.509 163.359 123.56C164.59 123.647 165.825 123.647 167.056 123.56C169.525 123.368 171.955 122.835 174.278 121.976C176.614 121.134 178.811 119.95 180.798 118.46C182.828 117.014 184.622 115.262 186.114 113.265C189.167 109.306 191.067 104.581 191.604 99.6103Z" fill="#263238"/>
<path d="M176.52 100.892C178.328 100.892 179.793 99.4263 179.793 97.6187C179.793 95.8111 178.328 94.3457 176.52 94.3457C174.713 94.3457 173.247 95.8111 173.247 97.6187C173.247 99.4263 174.713 100.892 176.52 100.892Z" fill="#263238"/>
<path d="M164.788 100.892C166.595 100.892 168.061 99.4263 168.061 97.6187C168.061 95.8111 166.595 94.3457 164.788 94.3457C162.98 94.3457 161.515 95.8111 161.515 97.6187C161.515 99.4263 162.98 100.892 164.788 100.892Z" fill="#263238"/>
<path d="M153.064 100.892C154.871 100.892 156.337 99.4263 156.337 97.6187C156.337 95.8111 154.871 94.3457 153.064 94.3457C151.256 94.3457 149.791 95.8111 149.791 97.6187C149.791 99.4263 151.256 100.892 153.064 100.892Z" fill="#263238"/>
<path d="M460.475 99.6103C459.955 104.591 458.062 109.33 455.006 113.297C451.95 117.264 447.851 120.304 443.168 122.078C438.485 123.852 433.401 124.289 428.483 123.341C423.566 122.394 419.008 120.098 415.32 116.711L401.795 118.694L408.557 107.005C407.018 103.201 406.365 99.0961 406.649 95.0022C406.932 90.9082 408.143 86.9325 410.191 83.3763C412.239 79.8201 415.069 76.7769 418.468 74.4773C421.867 72.1776 425.745 70.682 429.807 70.1037C433.87 69.5255 438.011 69.8798 441.917 71.1397C445.822 72.3997 449.39 74.5323 452.348 77.3759C455.307 80.2195 457.58 83.6993 458.994 87.5517C460.408 91.404 460.926 95.5278 460.51 99.6103H460.475Z" fill="white"/>
<path d="M460.475 99.6102C459.948 104.593 458.061 109.335 455.02 113.317C454.26 114.303 453.441 115.242 452.57 116.131C451.668 116.994 450.714 117.801 449.712 118.547C447.723 120.06 445.527 121.282 443.192 122.175C440.86 123.089 438.412 123.672 435.919 123.907C434.67 124.021 433.414 124.044 432.161 123.976C430.906 123.946 429.655 123.815 428.42 123.586C423.438 122.671 418.808 120.387 415.051 116.988L415.372 117.084L401.864 119.162L400.886 119.309L401.379 118.443L408.107 106.728V107.195C406.522 103.321 405.847 99.1339 406.135 94.9575C406.424 90.7811 407.667 86.7267 409.769 83.1066C411.875 79.5011 414.771 76.4195 418.238 74.0929C421.7 71.8004 425.635 70.3213 429.75 69.7665C433.865 69.2117 438.052 69.5955 441.997 70.8892C445.895 72.2197 449.445 74.4062 452.388 77.288C455.338 80.1537 457.599 83.6519 458.999 87.5187C460.4 91.3855 460.905 95.52 460.475 99.6102ZM460.475 99.6102C460.907 95.5397 460.399 91.4244 458.989 87.5814C457.58 83.7384 455.307 80.2703 452.345 77.4445C449.384 74.6186 445.813 72.5104 441.908 71.2823C438.004 70.0542 433.869 69.739 429.823 70.361C425.815 70.9631 421.997 72.4735 418.662 74.7769C415.359 77.0939 412.599 80.1017 410.575 83.5915C408.568 87.0926 407.384 91.0038 407.111 95.0297C406.857 99.0473 407.505 103.071 409.008 106.806L409.111 107.048L408.982 107.265L402.176 118.937L401.691 118.218L415.224 116.322H415.415L415.545 116.451C419.159 119.829 423.641 122.137 428.49 123.119C429.697 123.361 430.922 123.509 432.152 123.56C433.383 123.647 434.619 123.647 435.85 123.56C438.318 123.368 440.749 122.834 443.071 121.976C445.406 121.133 447.603 119.948 449.591 118.46C451.617 117.011 453.407 115.259 454.899 113.265C457.986 109.318 459.917 104.59 460.475 99.6102Z" fill="#263238"/>
<path d="M445.348 100.892C447.156 100.892 448.621 99.4263 448.621 97.6187C448.621 95.8111 447.156 94.3457 445.348 94.3457C443.541 94.3457 442.075 95.8111 442.075 97.6187C442.075 99.4263 443.541 100.892 445.348 100.892Z" fill="#263238"/>
<path d="M433.624 100.892C435.432 100.892 436.897 99.4263 436.897 97.6187C436.897 95.8111 435.432 94.3457 433.624 94.3457C431.817 94.3457 430.351 95.8111 430.351 97.6187C430.351 99.4263 431.817 100.892 433.624 100.892Z" fill="#263238"/>
<path d="M425.173 97.6188C425.175 98.2665 424.985 98.9002 424.626 99.4396C424.267 99.979 423.757 100.4 423.159 100.649C422.561 100.898 421.903 100.964 421.267 100.839C420.632 100.713 420.048 100.402 419.589 99.9449C419.131 99.4875 418.818 98.9044 418.691 98.2692C418.564 97.6341 418.628 96.9755 418.876 96.377C419.123 95.7784 419.543 95.2667 420.081 94.9067C420.62 94.5467 421.253 94.3545 421.9 94.3545C422.767 94.3545 423.598 94.6981 424.212 95.3101C424.825 95.922 425.171 96.7523 425.173 97.6188Z" fill="#263238"/>
<path d="M146.855 291.245H141.063V295.029H146.855V291.245Z" fill="#455A64"/>
<path d="M154.371 290.994H148.578V294.778H154.371V290.994Z" fill="#455A64"/>
<path d="M161.887 290.743H156.094V294.527H161.887V290.743Z" fill="#455A64"/>
<path d="M169.394 290.492H163.601V294.276H169.394V290.492Z" fill="#455A64"/>
<path d="M176.91 290.241H171.117V294.025H176.91V290.241Z" fill="#455A64"/>
<path d="M184.426 289.999H178.633V293.782H184.426V289.999Z" fill="#455A64"/>
<path d="M191.933 289.748H186.14V293.531H191.933V289.748Z" fill="#455A64"/>
<path d="M199.449 289.496H193.656V293.28H199.449V289.496Z" fill="#455A64"/>
<path d="M206.956 289.245H201.163V293.029H206.956V289.245Z" fill="#455A64"/>
<path d="M208.376 297.202H139.643V292.596L208.376 290.682V297.202Z" fill="#37474F"/>
<path d="M275.464 279.054H162L180.044 194.579H293.508L275.464 279.054Z" fill="#455A64"/>
<path d="M279.663 279.054H166.19L184.235 194.579H297.708L279.663 279.054Z" fill="#37474F"/>
<path d="M241.755 231.924C241.407 233.847 240.41 235.593 238.931 236.869C237.451 238.146 235.578 238.876 233.625 238.938C232.743 238.965 231.867 238.793 231.062 238.433C230.257 238.073 229.544 237.535 228.976 236.86C228.409 236.185 228.002 235.391 227.786 234.536C227.569 233.681 227.55 232.788 227.728 231.924C228.072 230 229.067 228.253 230.545 226.975C232.024 225.697 233.896 224.965 235.85 224.902C236.733 224.873 237.611 225.045 238.418 225.405C239.225 225.764 239.94 226.303 240.508 226.979C241.077 227.655 241.485 228.451 241.701 229.308C241.917 230.165 241.935 231.059 241.755 231.924Z" fill="#263238"/>
<path d="M247.574 301.116H191.768V296.778L247.574 294.977V301.116Z" fill="#455A64"/>
<path d="M262.744 301.107H232.776L214.731 253.77H244.699L262.744 301.107Z" fill="#455A64"/>
<path d="M267.671 301.107H237.712L219.667 253.77H249.626L267.671 301.107Z" fill="#263238"/>
<path d="M137.504 302.268H79.9927C75.0832 302.268 82.1834 288.284 100.107 282.924C118.031 277.564 143.176 297.021 137.504 302.268Z" fill="#37474F"/>
<path d="M114.991 302.268C115.03 300.675 115.292 299.095 115.771 297.575C116.232 296.038 116.881 294.564 117.702 293.185C118.524 291.797 119.555 290.545 120.758 289.47C121.951 288.404 123.323 287.557 124.81 286.968C124.196 287.47 123.494 287.834 122.931 288.379L122.066 289.132L121.252 289.998C120.188 291.112 119.255 292.344 118.472 293.67C117.676 294.995 116.992 296.386 116.429 297.826C115.851 299.273 115.371 300.757 114.991 302.268Z" fill="#263238"/>
<path d="M121.762 288.959C125.185 290.043 128.423 291.64 131.365 293.696C132.854 294.725 134.202 295.945 135.374 297.324C136.603 298.696 137.351 300.432 137.504 302.268C137.027 300.575 136.113 299.037 134.854 297.809C133.628 296.559 132.285 295.429 130.845 294.432C129.417 293.401 127.919 292.475 126.395 291.566C124.871 290.657 123.338 289.799 121.762 288.959Z" fill="#263238"/>
<path d="M412.558 291.245H406.765V295.029H412.558V291.245Z" fill="#455A64"/>
<path d="M420.073 290.994H414.281V294.778H420.073V290.994Z" fill="#455A64"/>
<path d="M427.589 290.743H421.797V294.527H427.589V290.743Z" fill="#455A64"/>
<path d="M435.096 290.492H429.304V294.276H435.096V290.492Z" fill="#455A64"/>
<path d="M442.612 290.241H436.819V294.025H442.612V290.241Z" fill="#455A64"/>
<path d="M450.128 289.999H444.335V293.782H450.128V289.999Z" fill="#455A64"/>
<path d="M457.635 289.748H451.842V293.531H457.635V289.748Z" fill="#455A64"/>
<path d="M465.151 289.496H459.358V293.28H465.151V289.496Z" fill="#455A64"/>
<path d="M472.667 289.245H466.874V293.029H472.667V289.245Z" fill="#455A64"/>
<path d="M474.087 297.202H405.354V292.596L474.087 290.682V297.202Z" fill="#37474F"/>
<path d="M541.166 279.054H427.702L445.747 194.579H559.211L541.166 279.054Z" fill="#455A64"/>
<path d="M545.365 279.054H431.901L449.946 194.579H563.41L545.365 279.054Z" fill="#37474F"/>
<path d="M507.457 231.924C507.11 233.846 506.114 235.59 504.636 236.867C503.158 238.143 501.287 238.874 499.335 238.938C498.453 238.967 497.576 238.795 496.77 238.436C495.964 238.076 495.25 237.539 494.681 236.864C494.113 236.189 493.705 235.393 493.488 234.538C493.271 233.682 493.252 232.789 493.43 231.924C493.776 230.001 494.771 228.255 496.249 226.977C497.727 225.699 499.599 224.966 501.552 224.902C502.435 224.873 503.313 225.045 504.12 225.405C504.927 225.764 505.642 226.303 506.21 226.979C506.779 227.655 507.187 228.451 507.403 229.308C507.619 230.165 507.637 231.059 507.457 231.924Z" fill="#263238"/>
<path d="M513.276 301.116H457.47V296.778L513.276 294.977V301.116Z" fill="#455A64"/>
<path d="M528.446 301.107H498.478L480.433 253.77H510.401L528.446 301.107Z" fill="#455A64"/>
<path d="M533.382 301.107H503.414L485.369 253.77H515.337L533.382 301.107Z" fill="#263238"/>
<path d="M403.232 302.268H345.695C340.785 302.268 347.886 288.284 365.809 282.924C383.733 277.564 408.878 297.021 403.232 302.268Z" fill="#37474F"/>
<path d="M380.65 302.268C380.693 300.675 380.955 299.096 381.429 297.575C381.895 296.039 382.543 294.565 383.36 293.185C384.189 291.801 385.219 290.549 386.417 289.47C387.61 288.404 388.982 287.557 390.469 286.968C389.854 287.47 389.153 287.834 388.59 288.379L387.724 289.132L386.91 289.998C385.841 291.11 384.906 292.342 384.122 293.67C383.326 294.995 382.642 296.386 382.079 297.826C381.504 299.273 381.027 300.757 380.65 302.268Z" fill="#263238"/>
<path d="M387.465 288.959C390.887 290.043 394.125 291.64 397.067 293.696C398.557 294.727 399.908 295.946 401.085 297.324C402.311 298.686 403.064 300.408 403.232 302.233C402.752 300.54 401.835 299.002 400.574 297.774C399.347 296.525 398.005 295.394 396.565 294.397C395.145 293.367 393.638 292.44 392.114 291.531C390.59 290.622 389.049 289.799 387.465 288.959Z" fill="#263238"/>
</svg>
