<svg width="25" height="25" viewBox="0 0 25 25" fill="none" xmlns="http://www.w3.org/2000/svg">
<g clip-path="url(#clip0_54_14693)">
<path d="M24.2141 12.7245C24.2141 11.7413 24.1343 11.0238 23.9616 10.2797H12.7336V14.7176H19.3242C19.1914 15.8205 18.4739 17.4815 16.8793 18.5976L16.857 18.7462L20.407 21.4964L20.653 21.5209C22.9118 19.4347 24.2141 16.3653 24.2141 12.7245Z" fill="#4285F4"/>
<path d="M12.7335 24.4176C15.9623 24.4176 18.673 23.3545 20.6529 21.5209L16.8792 18.5976C15.8693 19.3018 14.514 19.7934 12.7335 19.7934C9.57109 19.7934 6.88703 17.7074 5.93023 14.824L5.78999 14.8359L2.09857 17.6927L2.05029 17.8269C4.01683 21.7334 8.05625 24.4176 12.7335 24.4176Z" fill="#34A853"/>
<path d="M5.93041 14.8239C5.67796 14.0798 5.53185 13.2825 5.53185 12.4587C5.53185 11.6349 5.67796 10.8376 5.91713 10.0935L5.91044 9.93507L2.17277 7.03235L2.05047 7.09052C1.23997 8.71162 0.774902 10.532 0.774902 12.4587C0.774902 14.3854 1.23997 16.2058 2.05047 17.8269L5.93041 14.8239Z" fill="#FBBC05"/>
<path d="M12.7335 5.12403C14.9791 5.12403 16.4938 6.09402 17.3575 6.90461L20.7326 3.60928C18.6598 1.6826 15.9623 0.5 12.7335 0.5C8.05625 0.5 4.01683 3.18406 2.05029 7.09056L5.91695 10.0936C6.88703 7.2102 9.57109 5.12403 12.7335 5.12403Z" fill="#EB4335"/>
</g>
<defs>
<clipPath id="clip0_54_14693">
<rect width="23.46" height="24" fill="white" transform="translate(0.77002 0.5)"/>
</clipPath>
</defs>
</svg>
