<svg width="24" height="24" viewBox="0 0 24 24" fill="none" xmlns="http://www.w3.org/2000/svg">
<path d="M18.51 21.07L18.86 19.6C18.94 19.23 19.23 18.95 19.6 18.86L18.51 21.07ZM18.51 21.07C18.32 21.87 17.3 22.12 16.77 21.49L18.51 21.07ZM18.3725 19.4887C18.4976 18.9209 18.9412 18.5057 19.4818 18.3742L19.485 18.3734L19.485 18.3734L21.1348 17.9835L18.3725 19.4887ZM18.3725 19.4887L18.0236 20.9542L18.0235 20.9545C17.9267 21.362 17.4133 21.4781 17.1526 21.1681L17.1527 21.1681L17.1474 21.162L14.1592 17.7241C14.159 17.7238 14.1587 17.7235 14.1586 17.7233C16.0287 17.2666 17.7083 16.2194 18.9448 14.7293L18.9455 14.7284C18.9487 14.7245 18.9516 14.7222 18.9538 14.7209L21.1664 16.9336C21.4507 17.2178 21.4952 17.4842 21.4638 17.6491C21.4329 17.8117 21.3216 17.9391 21.135 17.9834L18.3725 19.4887ZM18.9464 14.7135L18.9464 14.7136C18.9464 14.7135 18.9464 14.7135 18.9464 14.7135ZM14.1518 17.7246C14.1516 17.7247 14.1514 17.7248 14.1512 17.7249L14.158 17.7224C14.1579 17.7219 14.1579 17.7207 14.1584 17.7192C14.1586 17.7186 14.1587 17.7183 14.1587 17.7183C14.1587 17.7184 14.1582 17.7194 14.1565 17.7211C14.1551 17.7224 14.1535 17.7236 14.1518 17.7246ZM14.1579 17.7222L14.1579 17.7222L14.1579 17.7222Z" fill="#DDB05B" stroke="#DDB05B"/>
<path d="M9.79071 17.7241L6.80254 21.162L6.8025 21.1619L6.79731 21.1681C6.53657 21.4781 6.02319 21.362 5.92639 20.9545L5.92632 20.9542L5.5774 19.4887C5.57781 19.4906 5.57822 19.4925 5.57863 19.4943L5.08992 19.6L5.43992 21.07C5.62992 21.87 6.64992 22.12 7.17992 21.49L10.1699 18.05M9.79071 17.7241C9.79058 17.7243 9.79044 17.7244 9.79029 17.7246L10.1699 18.05M9.79071 17.7241C9.79096 17.7238 9.79117 17.7235 9.79134 17.7233M9.79071 17.7241L9.7914 17.7233C9.79138 17.7233 9.79136 17.7233 9.79134 17.7233M10.1699 18.05L9.79511 17.7242L2.69992 18.47C1.93992 18.29 1.66992 17.34 2.42992 16.58L4.64992 14.36C4.85992 14.15 5.19992 14.18 5.38992 14.41C6.55992 15.82 8.14992 16.81 9.91992 17.24C10.2799 17.33 10.4099 17.77 10.1699 18.05ZM2.81515 17.9835L2.81493 17.9834C2.62829 17.9391 2.51703 17.8117 2.48612 17.6491C2.45476 17.4842 2.49923 17.2178 2.78347 16.9336L4.99611 14.7209C4.99829 14.7222 5.00119 14.7245 5.00444 14.7284L5.00514 14.7293C6.2416 16.2194 7.9212 17.2666 9.79134 17.7233" fill="#DDB05B" stroke="#DDB05B"/>
<path d="M12 2C8.13 2 5 5.13 5 9C5 10.45 5.43 11.78 6.17 12.89C7.25 14.49 8.96 15.62 10.95 15.91C11.29 15.97 11.64 16 12 16C12.36 16 12.71 15.97 13.05 15.91C15.04 15.62 16.75 14.49 17.83 12.89C18.57 11.78 19 10.45 19 9C19 5.13 15.87 2 12 2ZM15.06 8.78L14.23 9.61C14.09 9.75 14.01 10.02 14.06 10.22L14.3 11.25C14.49 12.06 14.06 12.38 13.34 11.95L12.34 11.36C12.16 11.25 11.86 11.25 11.68 11.36L10.68 11.95C9.96 12.37 9.53 12.06 9.72 11.25L9.96 10.22C10 10.03 9.93 9.75 9.79 9.61L8.94 8.78C8.45 8.29 8.61 7.8 9.29 7.69L10.36 7.51C10.54 7.48 10.75 7.32 10.83 7.16L11.42 5.98C11.74 5.34 12.26 5.34 12.58 5.98L13.17 7.16C13.25 7.32 13.46 7.48 13.65 7.51L14.72 7.69C15.39 7.8 15.55 8.29 15.06 8.78Z" fill="#DDB05B"/>
</svg>
