<svg width="24" height="25" viewBox="0 0 24 25" fill="none" xmlns="http://www.w3.org/2000/svg">
<path d="M9.47852 4.24784L6.69129 5.86979C6.71235 4.89675 6.9904 4.20612 7.44055 3.75405C7.90869 3.28393 8.63448 3 9.67 3H14.33C15.3655 3 16.0913 3.28393 16.5595 3.75405C17.0084 4.20488 17.2861 4.89297 17.3085 5.86182L14.5206 4.24731L14.5191 4.24648C13.0254 3.38817 10.965 3.38724 9.47948 4.24729L9.47852 4.24784Z" fill="#111111" stroke="#DDB05B"/>
<path d="M9.93 16.17L9.99 15.21C10 15.06 9.93 14.85 9.83 14.74L9.21 14L8.82799 14.3226L9.44674 15.0611L9.45323 15.0688L9.45598 15.0719M9.93 16.17L9.43115 16.1362L9.49091 15.1798M9.93 16.17C9.89 16.76 10.31 17.07 10.86 16.85M9.93 16.17L10.86 16.85M9.49091 15.1798C9.49093 15.1802 9.49094 15.1803 9.49094 15.1803C9.49095 15.1803 9.49095 15.1798 9.49099 15.1788C9.49101 15.1784 9.49103 15.178 9.49106 15.1774L9.49097 15.1788L9.49091 15.1798ZM9.49091 15.1798C9.49084 15.1783 9.49055 15.174 9.48941 15.1668C9.48738 15.1539 9.48351 15.1376 9.47761 15.1202C9.47169 15.1027 9.46516 15.0883 9.45972 15.0783C9.45808 15.0753 9.45681 15.0732 9.45598 15.0719M9.45598 15.0719L9.46003 15.0763C9.45645 15.0724 9.45488 15.0702 9.45488 15.0702C9.45488 15.0702 9.45526 15.0707 9.45598 15.0719ZM10.86 16.85L11.75 16.5C11.89 16.45 12.12 16.45 12.26 16.5L10.86 16.85ZM17.4512 8.83372L17.4636 8.84082L17.4764 8.8472L17.587 8.90252C18.4887 9.51293 18.8495 9.80458 19.0325 10.1237C19.2088 10.4311 19.25 10.8183 19.25 11.79V16.31C19.25 17.2895 19.211 17.6762 19.0398 17.9788C18.8629 18.2915 18.5123 18.5736 17.6153 19.1754L13.2698 21.6871L13.2687 21.6877C12.9324 21.8833 12.4743 21.99 12 21.99C11.5092 21.99 11.0672 21.8907 10.7387 21.6921L10.7388 21.692L10.7297 21.6868L6.42522 19.2058C5.5146 18.5897 5.15133 18.2968 4.96749 17.9763C4.79122 17.6689 4.75 17.2816 4.75 16.31V11.79C4.75 10.818 4.79112 10.4298 4.96371 10.1253C5.14154 9.81169 5.49135 9.52788 6.37271 8.93265L6.52361 8.8572L6.53884 8.84959L6.55351 8.84096L7.91129 8.04226L10.7291 6.42354L10.7291 6.42355L10.7313 6.42224C11.0704 6.22513 11.5247 6.11499 12 6.11499C12.4753 6.11499 12.9296 6.22513 13.2687 6.42225L13.2698 6.42288L16.0898 8.05288L16.0912 8.05372L17.4512 8.83372ZM8.55911 13.1803C8.42501 13.5851 8.5557 13.9997 8.82734 14.3218L9.43105 16.1377C9.40333 16.5522 9.53501 16.9654 9.87807 17.2169C10.222 17.4692 10.6564 17.4695 11.0442 17.3148C11.0447 17.3146 11.0452 17.3144 11.0457 17.3142L11.9194 16.9707C11.9226 16.9699 11.9295 16.9683 11.9403 16.9668C11.9582 16.9642 11.9806 16.9625 12.005 16.9625C12.0294 16.9625 12.0518 16.9642 12.0697 16.9668C12.0794 16.9682 12.086 16.9695 12.0895 16.9704L12.9625 17.3235L12.9625 17.3236L12.9716 17.3271C13.3562 17.4739 13.7874 17.4733 14.13 17.2246C14.4744 16.9746 14.6067 16.563 14.579 16.1477C14.5789 16.1472 14.5789 16.1467 14.5789 16.1462L14.5191 15.1898C14.5192 15.1883 14.5194 15.184 14.5206 15.1768C14.5226 15.1639 14.5265 15.1476 14.5324 15.1302C14.5383 15.1127 14.5448 15.0983 14.5503 15.0883C14.5519 15.0853 14.5532 15.0832 14.554 15.0819L14.5592 15.0762L14.5679 15.0655L15.1752 14.3188C15.4451 13.9971 15.5746 13.5838 15.4409 13.1803C15.3079 12.7788 14.9592 12.5222 14.5572 12.4164L14.5549 12.4159L13.6374 12.1791C13.6349 12.1781 13.6298 12.1758 13.622 12.1718C13.6084 12.1646 13.592 12.1545 13.5753 12.1421C13.5585 12.1296 13.5446 12.1173 13.5346 12.1071C13.5294 12.1018 13.5264 12.0982 13.5251 12.0965L13.5192 12.0875L12.9992 11.2875L12.9992 11.2875L12.9973 11.2846C12.7701 10.9403 12.4215 10.685 11.9963 10.685C11.5698 10.685 11.2227 10.9416 10.9999 11.2889L10.4835 12.0833C10.4828 12.0843 10.4814 12.0862 10.4791 12.089C10.4757 12.0932 10.471 12.0985 10.4649 12.1048C10.4526 12.1176 10.4374 12.1313 10.4207 12.1442C10.4039 12.1571 10.3889 12.1667 10.3774 12.1729C10.3725 12.1755 10.3693 12.1771 10.3676 12.1778L9.44506 12.4159L9.44506 12.4158L9.44275 12.4165C9.04083 12.5222 8.69209 12.7788 8.55911 13.1803Z" fill="#111111" stroke="#DDB05B"/>
</svg>
