<svg width="40" height="40" viewBox="0 0 40 40" fill="none" xmlns="http://www.w3.org/2000/svg">
<circle cx="20" cy="20" r="20" fill="#7B61FF" fill-opacity="0.2"/>
<path d="M29.97 20C29.97 23.31 27.28 26 23.97 26C23.2255 26 22.5093 25.8643 21.8511 25.6141C21.5324 25.4929 21.473 25.0851 21.6948 24.8262C22.8368 23.4938 23.47 21.786 23.47 20C23.47 18.2082 22.8312 16.4943 21.6979 15.1747C21.4752 14.9154 21.5342 14.5062 21.8537 14.3849C22.5111 14.1354 23.2265 14 23.97 14C27.28 14 29.97 16.69 29.97 20Z" fill="#7B61FF"/>
<path d="M21.97 20C21.97 21.77 21.2 23.37 19.97 24.46C18.91 25.42 17.51 26 15.97 26C12.66 26 9.97 23.31 9.97 20C9.97 16.69 12.66 14 15.97 14C17.51 14 18.91 14.58 19.97 15.54C21.2 16.63 21.97 18.23 21.97 20Z" fill="#7B61FF"/>
</svg>
