<svg width="24" height="24" viewBox="0 0 24 24" fill="none" xmlns="http://www.w3.org/2000/svg">
<mask id="path-1-inside-1_437_7911" fill="white">
<path d="M16.19 2H7.81C4.17 2 2 4.17 2 7.81V16.18C2 19.83 4.17 22 7.81 22H16.18C19.82 22 21.99 19.83 21.99 16.19V7.81C22 4.17 19.83 2 16.19 2ZM16.82 14.24L12.53 18.53C12.39 18.67 12.2 18.75 12 18.75C11.8 18.75 11.61 18.67 11.47 18.53L7.18 14.24C6.89 13.95 6.89 13.47 7.18 13.18C7.47 12.89 7.95 12.89 8.24 13.18L11.25 16.19V6C11.25 5.59 11.59 5.25 12 5.25C12.41 5.25 12.75 5.59 12.75 6V16.19L15.76 13.18C16.05 12.89 16.53 12.89 16.82 13.18C16.97 13.33 17.04 13.52 17.04 13.71C17.04 13.9 16.96 14.1 16.82 14.24Z"/>
</mask>
<path d="M16.19 2H7.81C4.17 2 2 4.17 2 7.81V16.18C2 19.83 4.17 22 7.81 22H16.18C19.82 22 21.99 19.83 21.99 16.19V7.81C22 4.17 19.83 2 16.19 2ZM16.82 14.24L12.53 18.53C12.39 18.67 12.2 18.75 12 18.75C11.8 18.75 11.61 18.67 11.47 18.53L7.18 14.24C6.89 13.95 6.89 13.47 7.18 13.18C7.47 12.89 7.95 12.89 8.24 13.18L11.25 16.19V6C11.25 5.59 11.59 5.25 12 5.25C12.41 5.25 12.75 5.59 12.75 6V16.19L15.76 13.18C16.05 12.89 16.53 12.89 16.82 13.18C16.97 13.33 17.04 13.52 17.04 13.71C17.04 13.9 16.96 14.1 16.82 14.24Z" fill="#DDB05B"/>
<path d="M21.99 7.81L20.99 7.80725V7.81H21.99ZM16.82 14.24L16.1129 13.5329L16.82 14.24ZM12.53 18.53L13.2371 19.2371L12.53 18.53ZM11.47 18.53L10.7629 19.2371L11.47 18.53ZM7.18 14.24L7.88711 13.5329L7.18 14.24ZM11.25 16.19L10.5429 16.8971L12.25 18.6042V16.19H11.25ZM12.75 16.19H11.75V18.6042L13.4571 16.8971L12.75 16.19ZM16.19 1H7.81V3H16.19V1ZM7.81 1C5.79113 1 4.06014 1.60564 2.83289 2.83289C1.60564 4.06014 1 5.79113 1 7.81H3C3 6.18887 3.47936 5.01486 4.24711 4.24711C5.01486 3.47936 6.18887 3 7.81 3V1ZM1 7.81V16.18H3V7.81H1ZM1 16.18C1 18.2032 1.60522 19.9366 2.83245 21.1654C4.05983 22.3943 5.79111 23 7.81 23V21C6.18889 21 5.01517 20.5207 4.24755 19.7521C3.47978 18.9834 3 17.8068 3 16.18H1ZM7.81 23H16.18V21H7.81V23ZM16.18 23C18.1989 23 19.9299 22.3944 21.1571 21.1671C22.3844 19.9399 22.99 18.2089 22.99 16.19H20.99C20.99 17.8111 20.5106 18.9851 19.7429 19.7529C18.9751 20.5206 17.8011 21 16.18 21V23ZM22.99 16.19V7.81H20.99V16.19H22.99ZM22.99 7.81275C22.9955 5.79324 22.3927 4.06132 21.1663 2.83334C19.9401 1.60556 18.2087 1 16.19 1V3C17.8113 3 18.9849 3.47944 19.7512 4.24666C20.5173 5.01368 20.9945 6.18676 20.99 7.80725L22.99 7.81275ZM16.1129 13.5329L11.8229 17.8229L13.2371 19.2371L17.5271 14.9471L16.1129 13.5329ZM11.8229 17.8229C11.8683 17.7775 11.9318 17.75 12 17.75V19.75C12.4682 19.75 12.9117 19.5625 13.2371 19.2371L11.8229 17.8229ZM12 17.75C12.0682 17.75 12.1317 17.7775 12.1771 17.8229L10.7629 19.2371C11.0883 19.5625 11.5318 19.75 12 19.75V17.75ZM12.1771 17.8229L7.88711 13.5329L6.47289 14.9471L10.7629 19.2371L12.1771 17.8229ZM7.88711 13.5329C7.94072 13.5865 7.9625 13.6534 7.9625 13.71C7.9625 13.7666 7.94072 13.8335 7.88711 13.8871L6.47289 12.4729C5.79237 13.1534 5.79237 14.2666 6.47289 14.9471L7.88711 13.5329ZM7.88711 13.8871C7.83349 13.9407 7.76663 13.9625 7.71 13.9625C7.65337 13.9625 7.58651 13.9407 7.53289 13.8871L8.94711 12.4729C8.26658 11.7924 7.15342 11.7924 6.47289 12.4729L7.88711 13.8871ZM7.53289 13.8871L10.5429 16.8971L11.9571 15.4829L8.94711 12.4729L7.53289 13.8871ZM12.25 16.19V6H10.25V16.19H12.25ZM12.25 6C12.25 6.07637 12.2179 6.13881 12.1784 6.17836C12.1388 6.2179 12.0764 6.25 12 6.25V4.25C11.0377 4.25 10.25 5.03772 10.25 6H12.25ZM12 6.25C11.9236 6.25 11.8612 6.2179 11.8216 6.17836C11.7821 6.13881 11.75 6.07637 11.75 6H13.75C13.75 5.03772 12.9623 4.25 12 4.25V6.25ZM11.75 6V16.19H13.75V6H11.75ZM13.4571 16.8971L16.4671 13.8871L15.0529 12.4729L12.0429 15.4829L13.4571 16.8971ZM16.4671 13.8871C16.4135 13.9407 16.3466 13.9625 16.29 13.9625C16.2334 13.9625 16.1665 13.9407 16.1129 13.8871L17.5271 12.4729C16.8466 11.7924 15.7334 11.7924 15.0529 12.4729L16.4671 13.8871ZM16.1129 13.8871C16.0923 13.8665 16.0725 13.8379 16.0587 13.8036C16.0452 13.7703 16.04 13.738 16.04 13.71H18.04C18.04 13.2691 17.8745 12.8203 17.5271 12.4729L16.1129 13.8871ZM16.04 13.71C16.04 13.6671 16.0484 13.6359 16.0576 13.6136C16.0668 13.5911 16.0831 13.5627 16.1129 13.5329L17.5271 14.9471C17.8575 14.6167 18.04 14.1612 18.04 13.71H16.04Z" fill="#DDB05B" mask="url(#path-1-inside-1_437_7911)"/>
</svg>
